G04 #@! TF.GenerationSoftware,KiCad,Pcbnew,5.1.5-52549c5~86~ubuntu18.04.1*
G04 #@! TF.CreationDate,2020-08-06T00:34:13-05:00*
G04 #@! TF.ProjectId,,58585858-5858-4585-9858-585858585858,rev?*
G04 #@! TF.SameCoordinates,Original*
G04 #@! TF.FileFunction,Legend,Top*
G04 #@! TF.FilePolarity,Positive*
%FSLAX46Y46*%
G04 Gerber Fmt 4.6, Leading zero omitted, Abs format (unit mm)*
G04 Created by KiCad (PCBNEW 5.1.5-52549c5~86~ubuntu18.04.1) date 2020-08-06 00:34:13*
%MOMM*%
%LPD*%
G04 APERTURE LIST*
%ADD10C,0.120000*%
G04 APERTURE END LIST*
D10*
X98265000Y-112455000D02*
X98265000Y-115115000D01*
X128805000Y-112455000D02*
X98265000Y-112455000D01*
X128805000Y-115115000D02*
X98265000Y-115115000D01*
X128805000Y-112455000D02*
X128805000Y-115115000D01*
X130075000Y-112455000D02*
X131405000Y-112455000D01*
X131405000Y-112455000D02*
X131405000Y-113785000D01*
X98265000Y-99295000D02*
X98265000Y-101955000D01*
X128805000Y-99295000D02*
X98265000Y-99295000D01*
X128805000Y-101955000D02*
X98265000Y-101955000D01*
X128805000Y-99295000D02*
X128805000Y-101955000D01*
X130075000Y-99295000D02*
X131405000Y-99295000D01*
X131405000Y-99295000D02*
X131405000Y-100625000D01*
X98265000Y-86135000D02*
X98265000Y-88795000D01*
X128805000Y-86135000D02*
X98265000Y-86135000D01*
X128805000Y-88795000D02*
X98265000Y-88795000D01*
X128805000Y-86135000D02*
X128805000Y-88795000D01*
X130075000Y-86135000D02*
X131405000Y-86135000D01*
X131405000Y-86135000D02*
X131405000Y-87465000D01*
X98265000Y-72975000D02*
X98265000Y-75635000D01*
X128805000Y-72975000D02*
X98265000Y-72975000D01*
X128805000Y-75635000D02*
X98265000Y-75635000D01*
X128805000Y-72975000D02*
X128805000Y-75635000D01*
X130075000Y-72975000D02*
X131405000Y-72975000D01*
X131405000Y-72975000D02*
X131405000Y-74305000D01*
X98265000Y-59815000D02*
X98265000Y-62475000D01*
X128805000Y-59815000D02*
X98265000Y-59815000D01*
X128805000Y-62475000D02*
X98265000Y-62475000D01*
X128805000Y-59815000D02*
X128805000Y-62475000D01*
X130075000Y-59815000D02*
X131405000Y-59815000D01*
X131405000Y-59815000D02*
X131405000Y-61145000D01*
X98265000Y-46655000D02*
X98265000Y-49315000D01*
X128805000Y-46655000D02*
X98265000Y-46655000D01*
X128805000Y-49315000D02*
X98265000Y-49315000D01*
X128805000Y-46655000D02*
X128805000Y-49315000D01*
X130075000Y-46655000D02*
X131405000Y-46655000D01*
X131405000Y-46655000D02*
X131405000Y-47985000D01*
X98385000Y-115115000D02*
X98385000Y-112455000D01*
X72925000Y-115115000D02*
X98385000Y-115115000D01*
X72925000Y-112455000D02*
X98385000Y-112455000D01*
X72925000Y-115115000D02*
X72925000Y-112455000D01*
X71655000Y-115115000D02*
X70325000Y-115115000D01*
X70325000Y-115115000D02*
X70325000Y-113785000D01*
X98385000Y-101955000D02*
X98385000Y-99295000D01*
X72925000Y-101955000D02*
X98385000Y-101955000D01*
X72925000Y-99295000D02*
X98385000Y-99295000D01*
X72925000Y-101955000D02*
X72925000Y-99295000D01*
X71655000Y-101955000D02*
X70325000Y-101955000D01*
X70325000Y-101955000D02*
X70325000Y-100625000D01*
X98385000Y-88795000D02*
X98385000Y-86135000D01*
X72925000Y-88795000D02*
X98385000Y-88795000D01*
X72925000Y-86135000D02*
X98385000Y-86135000D01*
X72925000Y-88795000D02*
X72925000Y-86135000D01*
X71655000Y-88795000D02*
X70325000Y-88795000D01*
X70325000Y-88795000D02*
X70325000Y-87465000D01*
X98385000Y-75635000D02*
X98385000Y-72975000D01*
X72925000Y-75635000D02*
X98385000Y-75635000D01*
X72925000Y-72975000D02*
X98385000Y-72975000D01*
X72925000Y-75635000D02*
X72925000Y-72975000D01*
X71655000Y-75635000D02*
X70325000Y-75635000D01*
X70325000Y-75635000D02*
X70325000Y-74305000D01*
X98385000Y-62475000D02*
X98385000Y-59815000D01*
X72925000Y-62475000D02*
X98385000Y-62475000D01*
X72925000Y-59815000D02*
X98385000Y-59815000D01*
X72925000Y-62475000D02*
X72925000Y-59815000D01*
X71655000Y-62475000D02*
X70325000Y-62475000D01*
X70325000Y-62475000D02*
X70325000Y-61145000D01*
X98385000Y-49315000D02*
X98385000Y-46655000D01*
X72925000Y-49315000D02*
X98385000Y-49315000D01*
X72925000Y-46655000D02*
X98385000Y-46655000D01*
X72925000Y-49315000D02*
X72925000Y-46655000D01*
X71655000Y-49315000D02*
X70325000Y-49315000D01*
X70325000Y-49315000D02*
X70325000Y-47985000D01*
X98265000Y-117535000D02*
X98265000Y-120195000D01*
X128805000Y-117535000D02*
X98265000Y-117535000D01*
X128805000Y-120195000D02*
X98265000Y-120195000D01*
X128805000Y-117535000D02*
X128805000Y-120195000D01*
X130075000Y-117535000D02*
X131405000Y-117535000D01*
X131405000Y-117535000D02*
X131405000Y-118865000D01*
X98265000Y-104375000D02*
X98265000Y-107035000D01*
X128805000Y-104375000D02*
X98265000Y-104375000D01*
X128805000Y-107035000D02*
X98265000Y-107035000D01*
X128805000Y-104375000D02*
X128805000Y-107035000D01*
X130075000Y-104375000D02*
X131405000Y-104375000D01*
X131405000Y-104375000D02*
X131405000Y-105705000D01*
X98265000Y-91215000D02*
X98265000Y-93875000D01*
X128805000Y-91215000D02*
X98265000Y-91215000D01*
X128805000Y-93875000D02*
X98265000Y-93875000D01*
X128805000Y-91215000D02*
X128805000Y-93875000D01*
X130075000Y-91215000D02*
X131405000Y-91215000D01*
X131405000Y-91215000D02*
X131405000Y-92545000D01*
X98265000Y-78055000D02*
X98265000Y-80715000D01*
X128805000Y-78055000D02*
X98265000Y-78055000D01*
X128805000Y-80715000D02*
X98265000Y-80715000D01*
X128805000Y-78055000D02*
X128805000Y-80715000D01*
X130075000Y-78055000D02*
X131405000Y-78055000D01*
X131405000Y-78055000D02*
X131405000Y-79385000D01*
X98265000Y-64895000D02*
X98265000Y-67555000D01*
X128805000Y-64895000D02*
X98265000Y-64895000D01*
X128805000Y-67555000D02*
X98265000Y-67555000D01*
X128805000Y-64895000D02*
X128805000Y-67555000D01*
X130075000Y-64895000D02*
X131405000Y-64895000D01*
X131405000Y-64895000D02*
X131405000Y-66225000D01*
X98265000Y-51735000D02*
X98265000Y-54395000D01*
X128805000Y-51735000D02*
X98265000Y-51735000D01*
X128805000Y-54395000D02*
X98265000Y-54395000D01*
X128805000Y-51735000D02*
X128805000Y-54395000D01*
X130075000Y-51735000D02*
X131405000Y-51735000D01*
X131405000Y-51735000D02*
X131405000Y-53065000D01*
X98265000Y-114995000D02*
X98265000Y-117655000D01*
X128805000Y-114995000D02*
X98265000Y-114995000D01*
X128805000Y-117655000D02*
X98265000Y-117655000D01*
X128805000Y-114995000D02*
X128805000Y-117655000D01*
X130075000Y-114995000D02*
X131405000Y-114995000D01*
X131405000Y-114995000D02*
X131405000Y-116325000D01*
X98265000Y-101835000D02*
X98265000Y-104495000D01*
X128805000Y-101835000D02*
X98265000Y-101835000D01*
X128805000Y-104495000D02*
X98265000Y-104495000D01*
X128805000Y-101835000D02*
X128805000Y-104495000D01*
X130075000Y-101835000D02*
X131405000Y-101835000D01*
X131405000Y-101835000D02*
X131405000Y-103165000D01*
X98265000Y-88675000D02*
X98265000Y-91335000D01*
X128805000Y-88675000D02*
X98265000Y-88675000D01*
X128805000Y-91335000D02*
X98265000Y-91335000D01*
X128805000Y-88675000D02*
X128805000Y-91335000D01*
X130075000Y-88675000D02*
X131405000Y-88675000D01*
X131405000Y-88675000D02*
X131405000Y-90005000D01*
X98265000Y-75515000D02*
X98265000Y-78175000D01*
X128805000Y-75515000D02*
X98265000Y-75515000D01*
X128805000Y-78175000D02*
X98265000Y-78175000D01*
X128805000Y-75515000D02*
X128805000Y-78175000D01*
X130075000Y-75515000D02*
X131405000Y-75515000D01*
X131405000Y-75515000D02*
X131405000Y-76845000D01*
X98265000Y-62355000D02*
X98265000Y-65015000D01*
X128805000Y-62355000D02*
X98265000Y-62355000D01*
X128805000Y-65015000D02*
X98265000Y-65015000D01*
X128805000Y-62355000D02*
X128805000Y-65015000D01*
X130075000Y-62355000D02*
X131405000Y-62355000D01*
X131405000Y-62355000D02*
X131405000Y-63685000D01*
X98265000Y-49195000D02*
X98265000Y-51855000D01*
X128805000Y-49195000D02*
X98265000Y-49195000D01*
X128805000Y-51855000D02*
X98265000Y-51855000D01*
X128805000Y-49195000D02*
X128805000Y-51855000D01*
X130075000Y-49195000D02*
X131405000Y-49195000D01*
X131405000Y-49195000D02*
X131405000Y-50525000D01*
X98385000Y-120195000D02*
X98385000Y-117535000D01*
X72925000Y-120195000D02*
X98385000Y-120195000D01*
X72925000Y-117535000D02*
X98385000Y-117535000D01*
X72925000Y-120195000D02*
X72925000Y-117535000D01*
X71655000Y-120195000D02*
X70325000Y-120195000D01*
X70325000Y-120195000D02*
X70325000Y-118865000D01*
X98385000Y-107035000D02*
X98385000Y-104375000D01*
X72925000Y-107035000D02*
X98385000Y-107035000D01*
X72925000Y-104375000D02*
X98385000Y-104375000D01*
X72925000Y-107035000D02*
X72925000Y-104375000D01*
X71655000Y-107035000D02*
X70325000Y-107035000D01*
X70325000Y-107035000D02*
X70325000Y-105705000D01*
X98385000Y-93875000D02*
X98385000Y-91215000D01*
X72925000Y-93875000D02*
X98385000Y-93875000D01*
X72925000Y-91215000D02*
X98385000Y-91215000D01*
X72925000Y-93875000D02*
X72925000Y-91215000D01*
X71655000Y-93875000D02*
X70325000Y-93875000D01*
X70325000Y-93875000D02*
X70325000Y-92545000D01*
X98385000Y-80715000D02*
X98385000Y-78055000D01*
X72925000Y-80715000D02*
X98385000Y-80715000D01*
X72925000Y-78055000D02*
X98385000Y-78055000D01*
X72925000Y-80715000D02*
X72925000Y-78055000D01*
X71655000Y-80715000D02*
X70325000Y-80715000D01*
X70325000Y-80715000D02*
X70325000Y-79385000D01*
X98385000Y-67555000D02*
X98385000Y-64895000D01*
X72925000Y-67555000D02*
X98385000Y-67555000D01*
X72925000Y-64895000D02*
X98385000Y-64895000D01*
X72925000Y-67555000D02*
X72925000Y-64895000D01*
X71655000Y-67555000D02*
X70325000Y-67555000D01*
X70325000Y-67555000D02*
X70325000Y-66225000D01*
X98385000Y-54395000D02*
X98385000Y-51735000D01*
X72925000Y-54395000D02*
X98385000Y-54395000D01*
X72925000Y-51735000D02*
X98385000Y-51735000D01*
X72925000Y-54395000D02*
X72925000Y-51735000D01*
X71655000Y-54395000D02*
X70325000Y-54395000D01*
X70325000Y-54395000D02*
X70325000Y-53065000D01*
X98385000Y-117655000D02*
X98385000Y-114995000D01*
X72925000Y-117655000D02*
X98385000Y-117655000D01*
X72925000Y-114995000D02*
X98385000Y-114995000D01*
X72925000Y-117655000D02*
X72925000Y-114995000D01*
X71655000Y-117655000D02*
X70325000Y-117655000D01*
X70325000Y-117655000D02*
X70325000Y-116325000D01*
X98385000Y-104495000D02*
X98385000Y-101835000D01*
X72925000Y-104495000D02*
X98385000Y-104495000D01*
X72925000Y-101835000D02*
X98385000Y-101835000D01*
X72925000Y-104495000D02*
X72925000Y-101835000D01*
X71655000Y-104495000D02*
X70325000Y-104495000D01*
X70325000Y-104495000D02*
X70325000Y-103165000D01*
X98385000Y-91335000D02*
X98385000Y-88675000D01*
X72925000Y-91335000D02*
X98385000Y-91335000D01*
X72925000Y-88675000D02*
X98385000Y-88675000D01*
X72925000Y-91335000D02*
X72925000Y-88675000D01*
X71655000Y-91335000D02*
X70325000Y-91335000D01*
X70325000Y-91335000D02*
X70325000Y-90005000D01*
X98385000Y-78175000D02*
X98385000Y-75515000D01*
X72925000Y-78175000D02*
X98385000Y-78175000D01*
X72925000Y-75515000D02*
X98385000Y-75515000D01*
X72925000Y-78175000D02*
X72925000Y-75515000D01*
X71655000Y-78175000D02*
X70325000Y-78175000D01*
X70325000Y-78175000D02*
X70325000Y-76845000D01*
X98385000Y-65015000D02*
X98385000Y-62355000D01*
X72925000Y-65015000D02*
X98385000Y-65015000D01*
X72925000Y-62355000D02*
X98385000Y-62355000D01*
X72925000Y-65015000D02*
X72925000Y-62355000D01*
X71655000Y-65015000D02*
X70325000Y-65015000D01*
X70325000Y-65015000D02*
X70325000Y-63685000D01*
X98385000Y-51855000D02*
X98385000Y-49195000D01*
X72925000Y-51855000D02*
X98385000Y-51855000D01*
X72925000Y-49195000D02*
X98385000Y-49195000D01*
X72925000Y-51855000D02*
X72925000Y-49195000D01*
X71655000Y-51855000D02*
X70325000Y-51855000D01*
X70325000Y-51855000D02*
X70325000Y-50525000D01*
X98265000Y-122615000D02*
X98265000Y-125275000D01*
X128805000Y-122615000D02*
X98265000Y-122615000D01*
X128805000Y-125275000D02*
X98265000Y-125275000D01*
X128805000Y-122615000D02*
X128805000Y-125275000D01*
X130075000Y-122615000D02*
X131405000Y-122615000D01*
X131405000Y-122615000D02*
X131405000Y-123945000D01*
X98265000Y-109455000D02*
X98265000Y-112115000D01*
X128805000Y-109455000D02*
X98265000Y-109455000D01*
X128805000Y-112115000D02*
X98265000Y-112115000D01*
X128805000Y-109455000D02*
X128805000Y-112115000D01*
X130075000Y-109455000D02*
X131405000Y-109455000D01*
X131405000Y-109455000D02*
X131405000Y-110785000D01*
X98265000Y-96295000D02*
X98265000Y-98955000D01*
X128805000Y-96295000D02*
X98265000Y-96295000D01*
X128805000Y-98955000D02*
X98265000Y-98955000D01*
X128805000Y-96295000D02*
X128805000Y-98955000D01*
X130075000Y-96295000D02*
X131405000Y-96295000D01*
X131405000Y-96295000D02*
X131405000Y-97625000D01*
X98265000Y-83135000D02*
X98265000Y-85795000D01*
X128805000Y-83135000D02*
X98265000Y-83135000D01*
X128805000Y-85795000D02*
X98265000Y-85795000D01*
X128805000Y-83135000D02*
X128805000Y-85795000D01*
X130075000Y-83135000D02*
X131405000Y-83135000D01*
X131405000Y-83135000D02*
X131405000Y-84465000D01*
X98265000Y-69975000D02*
X98265000Y-72635000D01*
X128805000Y-69975000D02*
X98265000Y-69975000D01*
X128805000Y-72635000D02*
X98265000Y-72635000D01*
X128805000Y-69975000D02*
X128805000Y-72635000D01*
X130075000Y-69975000D02*
X131405000Y-69975000D01*
X131405000Y-69975000D02*
X131405000Y-71305000D01*
X98265000Y-56815000D02*
X98265000Y-59475000D01*
X128805000Y-56815000D02*
X98265000Y-56815000D01*
X128805000Y-59475000D02*
X98265000Y-59475000D01*
X128805000Y-56815000D02*
X128805000Y-59475000D01*
X130075000Y-56815000D02*
X131405000Y-56815000D01*
X131405000Y-56815000D02*
X131405000Y-58145000D01*
X98385000Y-122735000D02*
X98385000Y-120075000D01*
X72925000Y-122735000D02*
X98385000Y-122735000D01*
X72925000Y-120075000D02*
X98385000Y-120075000D01*
X72925000Y-122735000D02*
X72925000Y-120075000D01*
X71655000Y-122735000D02*
X70325000Y-122735000D01*
X70325000Y-122735000D02*
X70325000Y-121405000D01*
X98385000Y-109575000D02*
X98385000Y-106915000D01*
X72925000Y-109575000D02*
X98385000Y-109575000D01*
X72925000Y-106915000D02*
X98385000Y-106915000D01*
X72925000Y-109575000D02*
X72925000Y-106915000D01*
X71655000Y-109575000D02*
X70325000Y-109575000D01*
X70325000Y-109575000D02*
X70325000Y-108245000D01*
X98385000Y-96415000D02*
X98385000Y-93755000D01*
X72925000Y-96415000D02*
X98385000Y-96415000D01*
X72925000Y-93755000D02*
X98385000Y-93755000D01*
X72925000Y-96415000D02*
X72925000Y-93755000D01*
X71655000Y-96415000D02*
X70325000Y-96415000D01*
X70325000Y-96415000D02*
X70325000Y-95085000D01*
X98385000Y-83255000D02*
X98385000Y-80595000D01*
X72925000Y-83255000D02*
X98385000Y-83255000D01*
X72925000Y-80595000D02*
X98385000Y-80595000D01*
X72925000Y-83255000D02*
X72925000Y-80595000D01*
X71655000Y-83255000D02*
X70325000Y-83255000D01*
X70325000Y-83255000D02*
X70325000Y-81925000D01*
X98385000Y-70095000D02*
X98385000Y-67435000D01*
X72925000Y-70095000D02*
X98385000Y-70095000D01*
X72925000Y-67435000D02*
X98385000Y-67435000D01*
X72925000Y-70095000D02*
X72925000Y-67435000D01*
X71655000Y-70095000D02*
X70325000Y-70095000D01*
X70325000Y-70095000D02*
X70325000Y-68765000D01*
X98385000Y-56935000D02*
X98385000Y-54275000D01*
X72925000Y-56935000D02*
X98385000Y-56935000D01*
X72925000Y-54275000D02*
X98385000Y-54275000D01*
X72925000Y-56935000D02*
X72925000Y-54275000D01*
X71655000Y-56935000D02*
X70325000Y-56935000D01*
X70325000Y-56935000D02*
X70325000Y-55605000D01*
X98265000Y-120075000D02*
X98265000Y-122735000D01*
X128805000Y-120075000D02*
X98265000Y-120075000D01*
X128805000Y-122735000D02*
X98265000Y-122735000D01*
X128805000Y-120075000D02*
X128805000Y-122735000D01*
X130075000Y-120075000D02*
X131405000Y-120075000D01*
X131405000Y-120075000D02*
X131405000Y-121405000D01*
X98265000Y-106915000D02*
X98265000Y-109575000D01*
X128805000Y-106915000D02*
X98265000Y-106915000D01*
X128805000Y-109575000D02*
X98265000Y-109575000D01*
X128805000Y-106915000D02*
X128805000Y-109575000D01*
X130075000Y-106915000D02*
X131405000Y-106915000D01*
X131405000Y-106915000D02*
X131405000Y-108245000D01*
X98265000Y-93755000D02*
X98265000Y-96415000D01*
X128805000Y-93755000D02*
X98265000Y-93755000D01*
X128805000Y-96415000D02*
X98265000Y-96415000D01*
X128805000Y-93755000D02*
X128805000Y-96415000D01*
X130075000Y-93755000D02*
X131405000Y-93755000D01*
X131405000Y-93755000D02*
X131405000Y-95085000D01*
X98265000Y-80595000D02*
X98265000Y-83255000D01*
X128805000Y-80595000D02*
X98265000Y-80595000D01*
X128805000Y-83255000D02*
X98265000Y-83255000D01*
X128805000Y-80595000D02*
X128805000Y-83255000D01*
X130075000Y-80595000D02*
X131405000Y-80595000D01*
X131405000Y-80595000D02*
X131405000Y-81925000D01*
X98265000Y-67435000D02*
X98265000Y-70095000D01*
X128805000Y-67435000D02*
X98265000Y-67435000D01*
X128805000Y-70095000D02*
X98265000Y-70095000D01*
X128805000Y-67435000D02*
X128805000Y-70095000D01*
X130075000Y-67435000D02*
X131405000Y-67435000D01*
X131405000Y-67435000D02*
X131405000Y-68765000D01*
X98265000Y-54275000D02*
X98265000Y-56935000D01*
X128805000Y-54275000D02*
X98265000Y-54275000D01*
X128805000Y-56935000D02*
X98265000Y-56935000D01*
X128805000Y-54275000D02*
X128805000Y-56935000D01*
X130075000Y-54275000D02*
X131405000Y-54275000D01*
X131405000Y-54275000D02*
X131405000Y-55605000D01*
X98385000Y-125275000D02*
X98385000Y-122615000D01*
X72925000Y-125275000D02*
X98385000Y-125275000D01*
X72925000Y-122615000D02*
X98385000Y-122615000D01*
X72925000Y-125275000D02*
X72925000Y-122615000D01*
X71655000Y-125275000D02*
X70325000Y-125275000D01*
X70325000Y-125275000D02*
X70325000Y-123945000D01*
X98385000Y-112115000D02*
X98385000Y-109455000D01*
X72925000Y-112115000D02*
X98385000Y-112115000D01*
X72925000Y-109455000D02*
X98385000Y-109455000D01*
X72925000Y-112115000D02*
X72925000Y-109455000D01*
X71655000Y-112115000D02*
X70325000Y-112115000D01*
X70325000Y-112115000D02*
X70325000Y-110785000D01*
X98385000Y-98955000D02*
X98385000Y-96295000D01*
X72925000Y-98955000D02*
X98385000Y-98955000D01*
X72925000Y-96295000D02*
X98385000Y-96295000D01*
X72925000Y-98955000D02*
X72925000Y-96295000D01*
X71655000Y-98955000D02*
X70325000Y-98955000D01*
X70325000Y-98955000D02*
X70325000Y-97625000D01*
X98385000Y-85795000D02*
X98385000Y-83135000D01*
X72925000Y-85795000D02*
X98385000Y-85795000D01*
X72925000Y-83135000D02*
X98385000Y-83135000D01*
X72925000Y-85795000D02*
X72925000Y-83135000D01*
X71655000Y-85795000D02*
X70325000Y-85795000D01*
X70325000Y-85795000D02*
X70325000Y-84465000D01*
X98385000Y-72635000D02*
X98385000Y-69975000D01*
X72925000Y-72635000D02*
X98385000Y-72635000D01*
X72925000Y-69975000D02*
X98385000Y-69975000D01*
X72925000Y-72635000D02*
X72925000Y-69975000D01*
X71655000Y-72635000D02*
X70325000Y-72635000D01*
X70325000Y-72635000D02*
X70325000Y-71305000D01*
X98385000Y-59475000D02*
X98385000Y-56815000D01*
X72925000Y-59475000D02*
X98385000Y-59475000D01*
X72925000Y-56815000D02*
X98385000Y-56815000D01*
X72925000Y-59475000D02*
X72925000Y-56815000D01*
X71655000Y-59475000D02*
X70325000Y-59475000D01*
X70325000Y-59475000D02*
X70325000Y-58145000D01*
X70325000Y-36155000D02*
X70325000Y-34825000D01*
X71655000Y-36155000D02*
X70325000Y-36155000D01*
X72925000Y-36155000D02*
X72925000Y-33495000D01*
X72925000Y-33495000D02*
X98385000Y-33495000D01*
X72925000Y-36155000D02*
X98385000Y-36155000D01*
X98385000Y-36155000D02*
X98385000Y-33495000D01*
X70325000Y-38695000D02*
X70325000Y-37365000D01*
X71655000Y-38695000D02*
X70325000Y-38695000D01*
X72925000Y-38695000D02*
X72925000Y-36035000D01*
X72925000Y-36035000D02*
X98385000Y-36035000D01*
X72925000Y-38695000D02*
X98385000Y-38695000D01*
X98385000Y-38695000D02*
X98385000Y-36035000D01*
X70325000Y-41235000D02*
X70325000Y-39905000D01*
X71655000Y-41235000D02*
X70325000Y-41235000D01*
X72925000Y-41235000D02*
X72925000Y-38575000D01*
X72925000Y-38575000D02*
X98385000Y-38575000D01*
X72925000Y-41235000D02*
X98385000Y-41235000D01*
X98385000Y-41235000D02*
X98385000Y-38575000D01*
X70325000Y-43775000D02*
X70325000Y-42445000D01*
X71655000Y-43775000D02*
X70325000Y-43775000D01*
X72925000Y-43775000D02*
X72925000Y-41115000D01*
X72925000Y-41115000D02*
X98385000Y-41115000D01*
X72925000Y-43775000D02*
X98385000Y-43775000D01*
X98385000Y-43775000D02*
X98385000Y-41115000D01*
X70325000Y-46315000D02*
X70325000Y-44985000D01*
X71655000Y-46315000D02*
X70325000Y-46315000D01*
X72925000Y-46315000D02*
X72925000Y-43655000D01*
X72925000Y-43655000D02*
X98385000Y-43655000D01*
X72925000Y-46315000D02*
X98385000Y-46315000D01*
X98385000Y-46315000D02*
X98385000Y-43655000D01*
X131405000Y-43655000D02*
X131405000Y-44985000D01*
X130075000Y-43655000D02*
X131405000Y-43655000D01*
X128805000Y-43655000D02*
X128805000Y-46315000D01*
X128805000Y-46315000D02*
X98265000Y-46315000D01*
X128805000Y-43655000D02*
X98265000Y-43655000D01*
X98265000Y-43655000D02*
X98265000Y-46315000D01*
X131405000Y-41115000D02*
X131405000Y-42445000D01*
X130075000Y-41115000D02*
X131405000Y-41115000D01*
X128805000Y-41115000D02*
X128805000Y-43775000D01*
X128805000Y-43775000D02*
X98265000Y-43775000D01*
X128805000Y-41115000D02*
X98265000Y-41115000D01*
X98265000Y-41115000D02*
X98265000Y-43775000D01*
X131405000Y-38575000D02*
X131405000Y-39905000D01*
X130075000Y-38575000D02*
X131405000Y-38575000D01*
X128805000Y-38575000D02*
X128805000Y-41235000D01*
X128805000Y-41235000D02*
X98265000Y-41235000D01*
X128805000Y-38575000D02*
X98265000Y-38575000D01*
X98265000Y-38575000D02*
X98265000Y-41235000D01*
X131405000Y-36035000D02*
X131405000Y-37365000D01*
X130075000Y-36035000D02*
X131405000Y-36035000D01*
X128805000Y-36035000D02*
X128805000Y-38695000D01*
X128805000Y-38695000D02*
X98265000Y-38695000D01*
X128805000Y-36035000D02*
X98265000Y-36035000D01*
X98265000Y-36035000D02*
X98265000Y-38695000D01*
X131405000Y-33495000D02*
X131405000Y-34825000D01*
X130075000Y-33495000D02*
X131405000Y-33495000D01*
X128805000Y-33495000D02*
X128805000Y-36155000D01*
X128805000Y-36155000D02*
X98265000Y-36155000D01*
X128805000Y-33495000D02*
X98265000Y-33495000D01*
X98265000Y-33495000D02*
X98265000Y-36155000D01*
M02*
