M48
; DRILL file {KiCad 5.1.5-52549c5~86~ubuntu18.04.1} date jue 06 ago 2020 00:33:38 -05
; FORMAT={-:-/ absolute / metric / decimal}
; #@! TF.CreationDate,2020-08-06T00:33:38-05:00
; #@! TF.GenerationSoftware,Kicad,Pcbnew,5.1.5-52549c5~86~ubuntu18.04.1
; #@! TF.FileFunction,Plated,1,2,PTH
FMAT,2
METRIC
T1C1.000
%
G90
G05
T1
X99.595Y-118.865
X102.135Y-118.865
X104.675Y-118.865
X107.215Y-118.865
X109.755Y-118.865
X112.295Y-118.865
X114.835Y-118.865
X117.375Y-118.865
X119.915Y-118.865
X122.455Y-118.865
X124.995Y-118.865
X127.535Y-118.865
X130.075Y-118.865
X71.655Y-113.785
X74.195Y-113.785
X76.735Y-113.785
X79.275Y-113.785
X81.815Y-113.785
X84.355Y-113.785
X86.895Y-113.785
X89.435Y-113.785
X91.975Y-113.785
X94.515Y-113.785
X97.055Y-113.785
X99.595Y-68.765
X102.135Y-68.765
X104.675Y-68.765
X107.215Y-68.765
X109.755Y-68.765
X112.295Y-68.765
X114.835Y-68.765
X117.375Y-68.765
X119.915Y-68.765
X122.455Y-68.765
X124.995Y-68.765
X127.535Y-68.765
X130.075Y-68.765
X99.595Y-76.845
X102.135Y-76.845
X104.675Y-76.845
X107.215Y-76.845
X109.755Y-76.845
X112.295Y-76.845
X114.835Y-76.845
X117.375Y-76.845
X119.915Y-76.845
X122.455Y-76.845
X124.995Y-76.845
X127.535Y-76.845
X130.075Y-76.845
X71.655Y-81.925
X74.195Y-81.925
X76.735Y-81.925
X79.275Y-81.925
X81.815Y-81.925
X84.355Y-81.925
X86.895Y-81.925
X89.435Y-81.925
X91.975Y-81.925
X94.515Y-81.925
X97.055Y-81.925
X99.595Y-103.165
X102.135Y-103.165
X104.675Y-103.165
X107.215Y-103.165
X109.755Y-103.165
X112.295Y-103.165
X114.835Y-103.165
X117.375Y-103.165
X119.915Y-103.165
X122.455Y-103.165
X124.995Y-103.165
X127.535Y-103.165
X130.075Y-103.165
X71.655Y-71.305
X74.195Y-71.305
X76.735Y-71.305
X79.275Y-71.305
X81.815Y-71.305
X84.355Y-71.305
X86.895Y-71.305
X89.435Y-71.305
X91.975Y-71.305
X94.515Y-71.305
X97.055Y-71.305
X99.595Y-87.465
X102.135Y-87.465
X104.675Y-87.465
X107.215Y-87.465
X109.755Y-87.465
X112.295Y-87.465
X114.835Y-87.465
X117.375Y-87.465
X119.915Y-87.465
X122.455Y-87.465
X124.995Y-87.465
X127.535Y-87.465
X130.075Y-87.465
X71.655Y-108.245
X74.195Y-108.245
X76.735Y-108.245
X79.275Y-108.245
X81.815Y-108.245
X84.355Y-108.245
X86.895Y-108.245
X89.435Y-108.245
X91.975Y-108.245
X94.515Y-108.245
X97.055Y-108.245
X71.655Y-123.945
X74.195Y-123.945
X76.735Y-123.945
X79.275Y-123.945
X81.815Y-123.945
X84.355Y-123.945
X86.895Y-123.945
X89.435Y-123.945
X91.975Y-123.945
X94.515Y-123.945
X97.055Y-123.945
X99.595Y-95.085
X102.135Y-95.085
X104.675Y-95.085
X107.215Y-95.085
X109.755Y-95.085
X112.295Y-95.085
X114.835Y-95.085
X117.375Y-95.085
X119.915Y-95.085
X122.455Y-95.085
X124.995Y-95.085
X127.535Y-95.085
X130.075Y-95.085
X71.655Y-116.325
X74.195Y-116.325
X76.735Y-116.325
X79.275Y-116.325
X81.815Y-116.325
X84.355Y-116.325
X86.895Y-116.325
X89.435Y-116.325
X91.975Y-116.325
X94.515Y-116.325
X97.055Y-116.325
X71.655Y-100.625
X74.195Y-100.625
X76.735Y-100.625
X79.275Y-100.625
X81.815Y-100.625
X84.355Y-100.625
X86.895Y-100.625
X89.435Y-100.625
X91.975Y-100.625
X94.515Y-100.625
X97.055Y-100.625
X99.595Y-37.365
X102.135Y-37.365
X104.675Y-37.365
X107.215Y-37.365
X109.755Y-37.365
X112.295Y-37.365
X114.835Y-37.365
X117.375Y-37.365
X119.915Y-37.365
X122.455Y-37.365
X124.995Y-37.365
X127.535Y-37.365
X130.075Y-37.365
X71.655Y-58.145
X74.195Y-58.145
X76.735Y-58.145
X79.275Y-58.145
X81.815Y-58.145
X84.355Y-58.145
X86.895Y-58.145
X89.435Y-58.145
X91.975Y-58.145
X94.515Y-58.145
X97.055Y-58.145
X71.655Y-97.625
X74.195Y-97.625
X76.735Y-97.625
X79.275Y-97.625
X81.815Y-97.625
X84.355Y-97.625
X86.895Y-97.625
X89.435Y-97.625
X91.975Y-97.625
X94.515Y-97.625
X97.055Y-97.625
X71.655Y-53.065
X74.195Y-53.065
X76.735Y-53.065
X79.275Y-53.065
X81.815Y-53.065
X84.355Y-53.065
X86.895Y-53.065
X89.435Y-53.065
X91.975Y-53.065
X94.515Y-53.065
X97.055Y-53.065
X99.595Y-113.785
X102.135Y-113.785
X104.675Y-113.785
X107.215Y-113.785
X109.755Y-113.785
X112.295Y-113.785
X114.835Y-113.785
X117.375Y-113.785
X119.915Y-113.785
X122.455Y-113.785
X124.995Y-113.785
X127.535Y-113.785
X130.075Y-113.785
X99.595Y-116.325
X102.135Y-116.325
X104.675Y-116.325
X107.215Y-116.325
X109.755Y-116.325
X112.295Y-116.325
X114.835Y-116.325
X117.375Y-116.325
X119.915Y-116.325
X122.455Y-116.325
X124.995Y-116.325
X127.535Y-116.325
X130.075Y-116.325
X99.595Y-42.445
X102.135Y-42.445
X104.675Y-42.445
X107.215Y-42.445
X109.755Y-42.445
X112.295Y-42.445
X114.835Y-42.445
X117.375Y-42.445
X119.915Y-42.445
X122.455Y-42.445
X124.995Y-42.445
X127.535Y-42.445
X130.075Y-42.445
X71.655Y-44.985
X74.195Y-44.985
X76.735Y-44.985
X79.275Y-44.985
X81.815Y-44.985
X84.355Y-44.985
X86.895Y-44.985
X89.435Y-44.985
X91.975Y-44.985
X94.515Y-44.985
X97.055Y-44.985
X99.595Y-84.465
X102.135Y-84.465
X104.675Y-84.465
X107.215Y-84.465
X109.755Y-84.465
X112.295Y-84.465
X114.835Y-84.465
X117.375Y-84.465
X119.915Y-84.465
X122.455Y-84.465
X124.995Y-84.465
X127.535Y-84.465
X130.075Y-84.465
X99.595Y-97.625
X102.135Y-97.625
X104.675Y-97.625
X107.215Y-97.625
X109.755Y-97.625
X112.295Y-97.625
X114.835Y-97.625
X117.375Y-97.625
X119.915Y-97.625
X122.455Y-97.625
X124.995Y-97.625
X127.535Y-97.625
X130.075Y-97.625
X71.655Y-34.825
X74.195Y-34.825
X76.735Y-34.825
X79.275Y-34.825
X81.815Y-34.825
X84.355Y-34.825
X86.895Y-34.825
X89.435Y-34.825
X91.975Y-34.825
X94.515Y-34.825
X97.055Y-34.825
X99.595Y-121.405
X102.135Y-121.405
X104.675Y-121.405
X107.215Y-121.405
X109.755Y-121.405
X112.295Y-121.405
X114.835Y-121.405
X117.375Y-121.405
X119.915Y-121.405
X122.455Y-121.405
X124.995Y-121.405
X127.535Y-121.405
X130.075Y-121.405
X99.595Y-55.605
X102.135Y-55.605
X104.675Y-55.605
X107.215Y-55.605
X109.755Y-55.605
X112.295Y-55.605
X114.835Y-55.605
X117.375Y-55.605
X119.915Y-55.605
X122.455Y-55.605
X124.995Y-55.605
X127.535Y-55.605
X130.075Y-55.605
X99.595Y-58.145
X102.135Y-58.145
X104.675Y-58.145
X107.215Y-58.145
X109.755Y-58.145
X112.295Y-58.145
X114.835Y-58.145
X117.375Y-58.145
X119.915Y-58.145
X122.455Y-58.145
X124.995Y-58.145
X127.535Y-58.145
X130.075Y-58.145
X71.655Y-47.985
X74.195Y-47.985
X76.735Y-47.985
X79.275Y-47.985
X81.815Y-47.985
X84.355Y-47.985
X86.895Y-47.985
X89.435Y-47.985
X91.975Y-47.985
X94.515Y-47.985
X97.055Y-47.985
X99.595Y-50.525
X102.135Y-50.525
X104.675Y-50.525
X107.215Y-50.525
X109.755Y-50.525
X112.295Y-50.525
X114.835Y-50.525
X117.375Y-50.525
X119.915Y-50.525
X122.455Y-50.525
X124.995Y-50.525
X127.535Y-50.525
X130.075Y-50.525
X71.655Y-118.865
X74.195Y-118.865
X76.735Y-118.865
X79.275Y-118.865
X81.815Y-118.865
X84.355Y-118.865
X86.895Y-118.865
X89.435Y-118.865
X91.975Y-118.865
X94.515Y-118.865
X97.055Y-118.865
X71.655Y-79.385
X74.195Y-79.385
X76.735Y-79.385
X79.275Y-79.385
X81.815Y-79.385
X84.355Y-79.385
X86.895Y-79.385
X89.435Y-79.385
X91.975Y-79.385
X94.515Y-79.385
X97.055Y-79.385
X71.655Y-63.685
X74.195Y-63.685
X76.735Y-63.685
X79.275Y-63.685
X81.815Y-63.685
X84.355Y-63.685
X86.895Y-63.685
X89.435Y-63.685
X91.975Y-63.685
X94.515Y-63.685
X97.055Y-63.685
X71.655Y-110.785
X74.195Y-110.785
X76.735Y-110.785
X79.275Y-110.785
X81.815Y-110.785
X84.355Y-110.785
X86.895Y-110.785
X89.435Y-110.785
X91.975Y-110.785
X94.515Y-110.785
X97.055Y-110.785
X99.595Y-92.545
X102.135Y-92.545
X104.675Y-92.545
X107.215Y-92.545
X109.755Y-92.545
X112.295Y-92.545
X114.835Y-92.545
X117.375Y-92.545
X119.915Y-92.545
X122.455Y-92.545
X124.995Y-92.545
X127.535Y-92.545
X130.075Y-92.545
X71.655Y-84.465
X74.195Y-84.465
X76.735Y-84.465
X79.275Y-84.465
X81.815Y-84.465
X84.355Y-84.465
X86.895Y-84.465
X89.435Y-84.465
X91.975Y-84.465
X94.515Y-84.465
X97.055Y-84.465
X71.655Y-105.705
X74.195Y-105.705
X76.735Y-105.705
X79.275Y-105.705
X81.815Y-105.705
X84.355Y-105.705
X86.895Y-105.705
X89.435Y-105.705
X91.975Y-105.705
X94.515Y-105.705
X97.055Y-105.705
X99.595Y-61.145
X102.135Y-61.145
X104.675Y-61.145
X107.215Y-61.145
X109.755Y-61.145
X112.295Y-61.145
X114.835Y-61.145
X117.375Y-61.145
X119.915Y-61.145
X122.455Y-61.145
X124.995Y-61.145
X127.535Y-61.145
X130.075Y-61.145
X99.595Y-105.705
X102.135Y-105.705
X104.675Y-105.705
X107.215Y-105.705
X109.755Y-105.705
X112.295Y-105.705
X114.835Y-105.705
X117.375Y-105.705
X119.915Y-105.705
X122.455Y-105.705
X124.995Y-105.705
X127.535Y-105.705
X130.075Y-105.705
X99.595Y-81.925
X102.135Y-81.925
X104.675Y-81.925
X107.215Y-81.925
X109.755Y-81.925
X112.295Y-81.925
X114.835Y-81.925
X117.375Y-81.925
X119.915Y-81.925
X122.455Y-81.925
X124.995Y-81.925
X127.535Y-81.925
X130.075Y-81.925
X71.655Y-50.525
X74.195Y-50.525
X76.735Y-50.525
X79.275Y-50.525
X81.815Y-50.525
X84.355Y-50.525
X86.895Y-50.525
X89.435Y-50.525
X91.975Y-50.525
X94.515Y-50.525
X97.055Y-50.525
X99.595Y-44.985
X102.135Y-44.985
X104.675Y-44.985
X107.215Y-44.985
X109.755Y-44.985
X112.295Y-44.985
X114.835Y-44.985
X117.375Y-44.985
X119.915Y-44.985
X122.455Y-44.985
X124.995Y-44.985
X127.535Y-44.985
X130.075Y-44.985
X99.595Y-53.065
X102.135Y-53.065
X104.675Y-53.065
X107.215Y-53.065
X109.755Y-53.065
X112.295Y-53.065
X114.835Y-53.065
X117.375Y-53.065
X119.915Y-53.065
X122.455Y-53.065
X124.995Y-53.065
X127.535Y-53.065
X130.075Y-53.065
X99.595Y-47.985
X102.135Y-47.985
X104.675Y-47.985
X107.215Y-47.985
X109.755Y-47.985
X112.295Y-47.985
X114.835Y-47.985
X117.375Y-47.985
X119.915Y-47.985
X122.455Y-47.985
X124.995Y-47.985
X127.535Y-47.985
X130.075Y-47.985
X99.595Y-34.825
X102.135Y-34.825
X104.675Y-34.825
X107.215Y-34.825
X109.755Y-34.825
X112.295Y-34.825
X114.835Y-34.825
X117.375Y-34.825
X119.915Y-34.825
X122.455Y-34.825
X124.995Y-34.825
X127.535Y-34.825
X130.075Y-34.825
X99.595Y-66.225
X102.135Y-66.225
X104.675Y-66.225
X107.215Y-66.225
X109.755Y-66.225
X112.295Y-66.225
X114.835Y-66.225
X117.375Y-66.225
X119.915Y-66.225
X122.455Y-66.225
X124.995Y-66.225
X127.535Y-66.225
X130.075Y-66.225
X71.655Y-95.085
X74.195Y-95.085
X76.735Y-95.085
X79.275Y-95.085
X81.815Y-95.085
X84.355Y-95.085
X86.895Y-95.085
X89.435Y-95.085
X91.975Y-95.085
X94.515Y-95.085
X97.055Y-95.085
X71.655Y-74.305
X74.195Y-74.305
X76.735Y-74.305
X79.275Y-74.305
X81.815Y-74.305
X84.355Y-74.305
X86.895Y-74.305
X89.435Y-74.305
X91.975Y-74.305
X94.515Y-74.305
X97.055Y-74.305
X71.655Y-37.365
X74.195Y-37.365
X76.735Y-37.365
X79.275Y-37.365
X81.815Y-37.365
X84.355Y-37.365
X86.895Y-37.365
X89.435Y-37.365
X91.975Y-37.365
X94.515Y-37.365
X97.055Y-37.365
X99.595Y-110.785
X102.135Y-110.785
X104.675Y-110.785
X107.215Y-110.785
X109.755Y-110.785
X112.295Y-110.785
X114.835Y-110.785
X117.375Y-110.785
X119.915Y-110.785
X122.455Y-110.785
X124.995Y-110.785
X127.535Y-110.785
X130.075Y-110.785
X71.655Y-103.165
X74.195Y-103.165
X76.735Y-103.165
X79.275Y-103.165
X81.815Y-103.165
X84.355Y-103.165
X86.895Y-103.165
X89.435Y-103.165
X91.975Y-103.165
X94.515Y-103.165
X97.055Y-103.165
X71.655Y-68.765
X74.195Y-68.765
X76.735Y-68.765
X79.275Y-68.765
X81.815Y-68.765
X84.355Y-68.765
X86.895Y-68.765
X89.435Y-68.765
X91.975Y-68.765
X94.515Y-68.765
X97.055Y-68.765
X71.655Y-92.545
X74.195Y-92.545
X76.735Y-92.545
X79.275Y-92.545
X81.815Y-92.545
X84.355Y-92.545
X86.895Y-92.545
X89.435Y-92.545
X91.975Y-92.545
X94.515Y-92.545
X97.055Y-92.545
X99.595Y-63.685
X102.135Y-63.685
X104.675Y-63.685
X107.215Y-63.685
X109.755Y-63.685
X112.295Y-63.685
X114.835Y-63.685
X117.375Y-63.685
X119.915Y-63.685
X122.455Y-63.685
X124.995Y-63.685
X127.535Y-63.685
X130.075Y-63.685
X71.655Y-76.845
X74.195Y-76.845
X76.735Y-76.845
X79.275Y-76.845
X81.815Y-76.845
X84.355Y-76.845
X86.895Y-76.845
X89.435Y-76.845
X91.975Y-76.845
X94.515Y-76.845
X97.055Y-76.845
X71.655Y-121.405
X74.195Y-121.405
X76.735Y-121.405
X79.275Y-121.405
X81.815Y-121.405
X84.355Y-121.405
X86.895Y-121.405
X89.435Y-121.405
X91.975Y-121.405
X94.515Y-121.405
X97.055Y-121.405
X99.595Y-123.945
X102.135Y-123.945
X104.675Y-123.945
X107.215Y-123.945
X109.755Y-123.945
X112.295Y-123.945
X114.835Y-123.945
X117.375Y-123.945
X119.915Y-123.945
X122.455Y-123.945
X124.995Y-123.945
X127.535Y-123.945
X130.075Y-123.945
X71.655Y-55.605
X74.195Y-55.605
X76.735Y-55.605
X79.275Y-55.605
X81.815Y-55.605
X84.355Y-55.605
X86.895Y-55.605
X89.435Y-55.605
X91.975Y-55.605
X94.515Y-55.605
X97.055Y-55.605
X99.595Y-39.905
X102.135Y-39.905
X104.675Y-39.905
X107.215Y-39.905
X109.755Y-39.905
X112.295Y-39.905
X114.835Y-39.905
X117.375Y-39.905
X119.915Y-39.905
X122.455Y-39.905
X124.995Y-39.905
X127.535Y-39.905
X130.075Y-39.905
X99.595Y-100.625
X102.135Y-100.625
X104.675Y-100.625
X107.215Y-100.625
X109.755Y-100.625
X112.295Y-100.625
X114.835Y-100.625
X117.375Y-100.625
X119.915Y-100.625
X122.455Y-100.625
X124.995Y-100.625
X127.535Y-100.625
X130.075Y-100.625
X99.595Y-108.245
X102.135Y-108.245
X104.675Y-108.245
X107.215Y-108.245
X109.755Y-108.245
X112.295Y-108.245
X114.835Y-108.245
X117.375Y-108.245
X119.915Y-108.245
X122.455Y-108.245
X124.995Y-108.245
X127.535Y-108.245
X130.075Y-108.245
X71.655Y-90.005
X74.195Y-90.005
X76.735Y-90.005
X79.275Y-90.005
X81.815Y-90.005
X84.355Y-90.005
X86.895Y-90.005
X89.435Y-90.005
X91.975Y-90.005
X94.515Y-90.005
X97.055Y-90.005
X99.595Y-90.005
X102.135Y-90.005
X104.675Y-90.005
X107.215Y-90.005
X109.755Y-90.005
X112.295Y-90.005
X114.835Y-90.005
X117.375Y-90.005
X119.915Y-90.005
X122.455Y-90.005
X124.995Y-90.005
X127.535Y-90.005
X130.075Y-90.005
X71.655Y-61.145
X74.195Y-61.145
X76.735Y-61.145
X79.275Y-61.145
X81.815Y-61.145
X84.355Y-61.145
X86.895Y-61.145
X89.435Y-61.145
X91.975Y-61.145
X94.515Y-61.145
X97.055Y-61.145
X99.595Y-71.305
X102.135Y-71.305
X104.675Y-71.305
X107.215Y-71.305
X109.755Y-71.305
X112.295Y-71.305
X114.835Y-71.305
X117.375Y-71.305
X119.915Y-71.305
X122.455Y-71.305
X124.995Y-71.305
X127.535Y-71.305
X130.075Y-71.305
X71.655Y-39.905
X74.195Y-39.905
X76.735Y-39.905
X79.275Y-39.905
X81.815Y-39.905
X84.355Y-39.905
X86.895Y-39.905
X89.435Y-39.905
X91.975Y-39.905
X94.515Y-39.905
X97.055Y-39.905
X99.595Y-74.305
X102.135Y-74.305
X104.675Y-74.305
X107.215Y-74.305
X109.755Y-74.305
X112.295Y-74.305
X114.835Y-74.305
X117.375Y-74.305
X119.915Y-74.305
X122.455Y-74.305
X124.995Y-74.305
X127.535Y-74.305
X130.075Y-74.305
X71.655Y-87.465
X74.195Y-87.465
X76.735Y-87.465
X79.275Y-87.465
X81.815Y-87.465
X84.355Y-87.465
X86.895Y-87.465
X89.435Y-87.465
X91.975Y-87.465
X94.515Y-87.465
X97.055Y-87.465
X71.655Y-66.225
X74.195Y-66.225
X76.735Y-66.225
X79.275Y-66.225
X81.815Y-66.225
X84.355Y-66.225
X86.895Y-66.225
X89.435Y-66.225
X91.975Y-66.225
X94.515Y-66.225
X97.055Y-66.225
X71.655Y-42.445
X74.195Y-42.445
X76.735Y-42.445
X79.275Y-42.445
X81.815Y-42.445
X84.355Y-42.445
X86.895Y-42.445
X89.435Y-42.445
X91.975Y-42.445
X94.515Y-42.445
X97.055Y-42.445
X99.595Y-79.385
X102.135Y-79.385
X104.675Y-79.385
X107.215Y-79.385
X109.755Y-79.385
X112.295Y-79.385
X114.835Y-79.385
X117.375Y-79.385
X119.915Y-79.385
X122.455Y-79.385
X124.995Y-79.385
X127.535Y-79.385
X130.075Y-79.385
T0
M30
