G04 #@! TF.GenerationSoftware,KiCad,Pcbnew,5.1.5-52549c5~86~ubuntu18.04.1*
G04 #@! TF.CreationDate,2020-08-06T00:34:13-05:00*
G04 #@! TF.ProjectId,,58585858-5858-4585-9858-585858585858,rev?*
G04 #@! TF.SameCoordinates,Original*
G04 #@! TF.FileFunction,Copper,L2,Bot*
G04 #@! TF.FilePolarity,Positive*
%FSLAX46Y46*%
G04 Gerber Fmt 4.6, Leading zero omitted, Abs format (unit mm)*
G04 Created by KiCad (PCBNEW 5.1.5-52549c5~86~ubuntu18.04.1) date 2020-08-06 00:34:13*
%MOMM*%
%LPD*%
G04 APERTURE LIST*
%ADD10C,1.700000*%
%ADD11O,1.700000X1.700000*%
%ADD12C,0.750000*%
G04 APERTURE END LIST*
D10*
X130075000Y-113785000D03*
D11*
X127535000Y-113785000D03*
X124995000Y-113785000D03*
X122455000Y-113785000D03*
X119915000Y-113785000D03*
X117375000Y-113785000D03*
X114835000Y-113785000D03*
X112295000Y-113785000D03*
X109755000Y-113785000D03*
X107215000Y-113785000D03*
X104675000Y-113785000D03*
X102135000Y-113785000D03*
X99595000Y-113785000D03*
D10*
X130075000Y-100625000D03*
D11*
X127535000Y-100625000D03*
X124995000Y-100625000D03*
X122455000Y-100625000D03*
X119915000Y-100625000D03*
X117375000Y-100625000D03*
X114835000Y-100625000D03*
X112295000Y-100625000D03*
X109755000Y-100625000D03*
X107215000Y-100625000D03*
X104675000Y-100625000D03*
X102135000Y-100625000D03*
X99595000Y-100625000D03*
D10*
X130075000Y-87465000D03*
D11*
X127535000Y-87465000D03*
X124995000Y-87465000D03*
X122455000Y-87465000D03*
X119915000Y-87465000D03*
X117375000Y-87465000D03*
X114835000Y-87465000D03*
X112295000Y-87465000D03*
X109755000Y-87465000D03*
X107215000Y-87465000D03*
X104675000Y-87465000D03*
X102135000Y-87465000D03*
X99595000Y-87465000D03*
D10*
X130075000Y-74305000D03*
D11*
X127535000Y-74305000D03*
X124995000Y-74305000D03*
X122455000Y-74305000D03*
X119915000Y-74305000D03*
X117375000Y-74305000D03*
X114835000Y-74305000D03*
X112295000Y-74305000D03*
X109755000Y-74305000D03*
X107215000Y-74305000D03*
X104675000Y-74305000D03*
X102135000Y-74305000D03*
X99595000Y-74305000D03*
D10*
X130075000Y-61145000D03*
D11*
X127535000Y-61145000D03*
X124995000Y-61145000D03*
X122455000Y-61145000D03*
X119915000Y-61145000D03*
X117375000Y-61145000D03*
X114835000Y-61145000D03*
X112295000Y-61145000D03*
X109755000Y-61145000D03*
X107215000Y-61145000D03*
X104675000Y-61145000D03*
X102135000Y-61145000D03*
X99595000Y-61145000D03*
D10*
X130075000Y-47985000D03*
D11*
X127535000Y-47985000D03*
X124995000Y-47985000D03*
X122455000Y-47985000D03*
X119915000Y-47985000D03*
X117375000Y-47985000D03*
X114835000Y-47985000D03*
X112295000Y-47985000D03*
X109755000Y-47985000D03*
X107215000Y-47985000D03*
X104675000Y-47985000D03*
X102135000Y-47985000D03*
X99595000Y-47985000D03*
D10*
X71655000Y-113785000D03*
D11*
X74195000Y-113785000D03*
X76735000Y-113785000D03*
X79275000Y-113785000D03*
X81815000Y-113785000D03*
X84355000Y-113785000D03*
X86895000Y-113785000D03*
X89435000Y-113785000D03*
X91975000Y-113785000D03*
X94515000Y-113785000D03*
X97055000Y-113785000D03*
D10*
X71655000Y-100625000D03*
D11*
X74195000Y-100625000D03*
X76735000Y-100625000D03*
X79275000Y-100625000D03*
X81815000Y-100625000D03*
X84355000Y-100625000D03*
X86895000Y-100625000D03*
X89435000Y-100625000D03*
X91975000Y-100625000D03*
X94515000Y-100625000D03*
X97055000Y-100625000D03*
D10*
X71655000Y-87465000D03*
D11*
X74195000Y-87465000D03*
X76735000Y-87465000D03*
X79275000Y-87465000D03*
X81815000Y-87465000D03*
X84355000Y-87465000D03*
X86895000Y-87465000D03*
X89435000Y-87465000D03*
X91975000Y-87465000D03*
X94515000Y-87465000D03*
X97055000Y-87465000D03*
D10*
X71655000Y-74305000D03*
D11*
X74195000Y-74305000D03*
X76735000Y-74305000D03*
X79275000Y-74305000D03*
X81815000Y-74305000D03*
X84355000Y-74305000D03*
X86895000Y-74305000D03*
X89435000Y-74305000D03*
X91975000Y-74305000D03*
X94515000Y-74305000D03*
X97055000Y-74305000D03*
D10*
X71655000Y-61145000D03*
D11*
X74195000Y-61145000D03*
X76735000Y-61145000D03*
X79275000Y-61145000D03*
X81815000Y-61145000D03*
X84355000Y-61145000D03*
X86895000Y-61145000D03*
X89435000Y-61145000D03*
X91975000Y-61145000D03*
X94515000Y-61145000D03*
X97055000Y-61145000D03*
D10*
X71655000Y-47985000D03*
D11*
X74195000Y-47985000D03*
X76735000Y-47985000D03*
X79275000Y-47985000D03*
X81815000Y-47985000D03*
X84355000Y-47985000D03*
X86895000Y-47985000D03*
X89435000Y-47985000D03*
X91975000Y-47985000D03*
X94515000Y-47985000D03*
X97055000Y-47985000D03*
D10*
X130075000Y-118865000D03*
D11*
X127535000Y-118865000D03*
X124995000Y-118865000D03*
X122455000Y-118865000D03*
X119915000Y-118865000D03*
X117375000Y-118865000D03*
X114835000Y-118865000D03*
X112295000Y-118865000D03*
X109755000Y-118865000D03*
X107215000Y-118865000D03*
X104675000Y-118865000D03*
X102135000Y-118865000D03*
X99595000Y-118865000D03*
D10*
X130075000Y-105705000D03*
D11*
X127535000Y-105705000D03*
X124995000Y-105705000D03*
X122455000Y-105705000D03*
X119915000Y-105705000D03*
X117375000Y-105705000D03*
X114835000Y-105705000D03*
X112295000Y-105705000D03*
X109755000Y-105705000D03*
X107215000Y-105705000D03*
X104675000Y-105705000D03*
X102135000Y-105705000D03*
X99595000Y-105705000D03*
D10*
X130075000Y-92545000D03*
D11*
X127535000Y-92545000D03*
X124995000Y-92545000D03*
X122455000Y-92545000D03*
X119915000Y-92545000D03*
X117375000Y-92545000D03*
X114835000Y-92545000D03*
X112295000Y-92545000D03*
X109755000Y-92545000D03*
X107215000Y-92545000D03*
X104675000Y-92545000D03*
X102135000Y-92545000D03*
X99595000Y-92545000D03*
D10*
X130075000Y-79385000D03*
D11*
X127535000Y-79385000D03*
X124995000Y-79385000D03*
X122455000Y-79385000D03*
X119915000Y-79385000D03*
X117375000Y-79385000D03*
X114835000Y-79385000D03*
X112295000Y-79385000D03*
X109755000Y-79385000D03*
X107215000Y-79385000D03*
X104675000Y-79385000D03*
X102135000Y-79385000D03*
X99595000Y-79385000D03*
D10*
X130075000Y-66225000D03*
D11*
X127535000Y-66225000D03*
X124995000Y-66225000D03*
X122455000Y-66225000D03*
X119915000Y-66225000D03*
X117375000Y-66225000D03*
X114835000Y-66225000D03*
X112295000Y-66225000D03*
X109755000Y-66225000D03*
X107215000Y-66225000D03*
X104675000Y-66225000D03*
X102135000Y-66225000D03*
X99595000Y-66225000D03*
D10*
X130075000Y-53065000D03*
D11*
X127535000Y-53065000D03*
X124995000Y-53065000D03*
X122455000Y-53065000D03*
X119915000Y-53065000D03*
X117375000Y-53065000D03*
X114835000Y-53065000D03*
X112295000Y-53065000D03*
X109755000Y-53065000D03*
X107215000Y-53065000D03*
X104675000Y-53065000D03*
X102135000Y-53065000D03*
X99595000Y-53065000D03*
D10*
X130075000Y-116325000D03*
D11*
X127535000Y-116325000D03*
X124995000Y-116325000D03*
X122455000Y-116325000D03*
X119915000Y-116325000D03*
X117375000Y-116325000D03*
X114835000Y-116325000D03*
X112295000Y-116325000D03*
X109755000Y-116325000D03*
X107215000Y-116325000D03*
X104675000Y-116325000D03*
X102135000Y-116325000D03*
X99595000Y-116325000D03*
D10*
X130075000Y-103165000D03*
D11*
X127535000Y-103165000D03*
X124995000Y-103165000D03*
X122455000Y-103165000D03*
X119915000Y-103165000D03*
X117375000Y-103165000D03*
X114835000Y-103165000D03*
X112295000Y-103165000D03*
X109755000Y-103165000D03*
X107215000Y-103165000D03*
X104675000Y-103165000D03*
X102135000Y-103165000D03*
X99595000Y-103165000D03*
D10*
X130075000Y-90005000D03*
D11*
X127535000Y-90005000D03*
X124995000Y-90005000D03*
X122455000Y-90005000D03*
X119915000Y-90005000D03*
X117375000Y-90005000D03*
X114835000Y-90005000D03*
X112295000Y-90005000D03*
X109755000Y-90005000D03*
X107215000Y-90005000D03*
X104675000Y-90005000D03*
X102135000Y-90005000D03*
X99595000Y-90005000D03*
D10*
X130075000Y-76845000D03*
D11*
X127535000Y-76845000D03*
X124995000Y-76845000D03*
X122455000Y-76845000D03*
X119915000Y-76845000D03*
X117375000Y-76845000D03*
X114835000Y-76845000D03*
X112295000Y-76845000D03*
X109755000Y-76845000D03*
X107215000Y-76845000D03*
X104675000Y-76845000D03*
X102135000Y-76845000D03*
X99595000Y-76845000D03*
D10*
X130075000Y-63685000D03*
D11*
X127535000Y-63685000D03*
X124995000Y-63685000D03*
X122455000Y-63685000D03*
X119915000Y-63685000D03*
X117375000Y-63685000D03*
X114835000Y-63685000D03*
X112295000Y-63685000D03*
X109755000Y-63685000D03*
X107215000Y-63685000D03*
X104675000Y-63685000D03*
X102135000Y-63685000D03*
X99595000Y-63685000D03*
D10*
X130075000Y-50525000D03*
D11*
X127535000Y-50525000D03*
X124995000Y-50525000D03*
X122455000Y-50525000D03*
X119915000Y-50525000D03*
X117375000Y-50525000D03*
X114835000Y-50525000D03*
X112295000Y-50525000D03*
X109755000Y-50525000D03*
X107215000Y-50525000D03*
X104675000Y-50525000D03*
X102135000Y-50525000D03*
X99595000Y-50525000D03*
D10*
X71655000Y-118865000D03*
D11*
X74195000Y-118865000D03*
X76735000Y-118865000D03*
X79275000Y-118865000D03*
X81815000Y-118865000D03*
X84355000Y-118865000D03*
X86895000Y-118865000D03*
X89435000Y-118865000D03*
X91975000Y-118865000D03*
X94515000Y-118865000D03*
X97055000Y-118865000D03*
D10*
X71655000Y-105705000D03*
D11*
X74195000Y-105705000D03*
X76735000Y-105705000D03*
X79275000Y-105705000D03*
X81815000Y-105705000D03*
X84355000Y-105705000D03*
X86895000Y-105705000D03*
X89435000Y-105705000D03*
X91975000Y-105705000D03*
X94515000Y-105705000D03*
X97055000Y-105705000D03*
D10*
X71655000Y-92545000D03*
D11*
X74195000Y-92545000D03*
X76735000Y-92545000D03*
X79275000Y-92545000D03*
X81815000Y-92545000D03*
X84355000Y-92545000D03*
X86895000Y-92545000D03*
X89435000Y-92545000D03*
X91975000Y-92545000D03*
X94515000Y-92545000D03*
X97055000Y-92545000D03*
D10*
X71655000Y-79385000D03*
D11*
X74195000Y-79385000D03*
X76735000Y-79385000D03*
X79275000Y-79385000D03*
X81815000Y-79385000D03*
X84355000Y-79385000D03*
X86895000Y-79385000D03*
X89435000Y-79385000D03*
X91975000Y-79385000D03*
X94515000Y-79385000D03*
X97055000Y-79385000D03*
D10*
X71655000Y-66225000D03*
D11*
X74195000Y-66225000D03*
X76735000Y-66225000D03*
X79275000Y-66225000D03*
X81815000Y-66225000D03*
X84355000Y-66225000D03*
X86895000Y-66225000D03*
X89435000Y-66225000D03*
X91975000Y-66225000D03*
X94515000Y-66225000D03*
X97055000Y-66225000D03*
D10*
X71655000Y-53065000D03*
D11*
X74195000Y-53065000D03*
X76735000Y-53065000D03*
X79275000Y-53065000D03*
X81815000Y-53065000D03*
X84355000Y-53065000D03*
X86895000Y-53065000D03*
X89435000Y-53065000D03*
X91975000Y-53065000D03*
X94515000Y-53065000D03*
X97055000Y-53065000D03*
D10*
X71655000Y-116325000D03*
D11*
X74195000Y-116325000D03*
X76735000Y-116325000D03*
X79275000Y-116325000D03*
X81815000Y-116325000D03*
X84355000Y-116325000D03*
X86895000Y-116325000D03*
X89435000Y-116325000D03*
X91975000Y-116325000D03*
X94515000Y-116325000D03*
X97055000Y-116325000D03*
D10*
X71655000Y-103165000D03*
D11*
X74195000Y-103165000D03*
X76735000Y-103165000D03*
X79275000Y-103165000D03*
X81815000Y-103165000D03*
X84355000Y-103165000D03*
X86895000Y-103165000D03*
X89435000Y-103165000D03*
X91975000Y-103165000D03*
X94515000Y-103165000D03*
X97055000Y-103165000D03*
D10*
X71655000Y-90005000D03*
D11*
X74195000Y-90005000D03*
X76735000Y-90005000D03*
X79275000Y-90005000D03*
X81815000Y-90005000D03*
X84355000Y-90005000D03*
X86895000Y-90005000D03*
X89435000Y-90005000D03*
X91975000Y-90005000D03*
X94515000Y-90005000D03*
X97055000Y-90005000D03*
D10*
X71655000Y-76845000D03*
D11*
X74195000Y-76845000D03*
X76735000Y-76845000D03*
X79275000Y-76845000D03*
X81815000Y-76845000D03*
X84355000Y-76845000D03*
X86895000Y-76845000D03*
X89435000Y-76845000D03*
X91975000Y-76845000D03*
X94515000Y-76845000D03*
X97055000Y-76845000D03*
D10*
X71655000Y-63685000D03*
D11*
X74195000Y-63685000D03*
X76735000Y-63685000D03*
X79275000Y-63685000D03*
X81815000Y-63685000D03*
X84355000Y-63685000D03*
X86895000Y-63685000D03*
X89435000Y-63685000D03*
X91975000Y-63685000D03*
X94515000Y-63685000D03*
X97055000Y-63685000D03*
D10*
X71655000Y-50525000D03*
D11*
X74195000Y-50525000D03*
X76735000Y-50525000D03*
X79275000Y-50525000D03*
X81815000Y-50525000D03*
X84355000Y-50525000D03*
X86895000Y-50525000D03*
X89435000Y-50525000D03*
X91975000Y-50525000D03*
X94515000Y-50525000D03*
X97055000Y-50525000D03*
D10*
X130075000Y-123945000D03*
D11*
X127535000Y-123945000D03*
X124995000Y-123945000D03*
X122455000Y-123945000D03*
X119915000Y-123945000D03*
X117375000Y-123945000D03*
X114835000Y-123945000D03*
X112295000Y-123945000D03*
X109755000Y-123945000D03*
X107215000Y-123945000D03*
X104675000Y-123945000D03*
X102135000Y-123945000D03*
X99595000Y-123945000D03*
D10*
X130075000Y-110785000D03*
D11*
X127535000Y-110785000D03*
X124995000Y-110785000D03*
X122455000Y-110785000D03*
X119915000Y-110785000D03*
X117375000Y-110785000D03*
X114835000Y-110785000D03*
X112295000Y-110785000D03*
X109755000Y-110785000D03*
X107215000Y-110785000D03*
X104675000Y-110785000D03*
X102135000Y-110785000D03*
X99595000Y-110785000D03*
D10*
X130075000Y-97625000D03*
D11*
X127535000Y-97625000D03*
X124995000Y-97625000D03*
X122455000Y-97625000D03*
X119915000Y-97625000D03*
X117375000Y-97625000D03*
X114835000Y-97625000D03*
X112295000Y-97625000D03*
X109755000Y-97625000D03*
X107215000Y-97625000D03*
X104675000Y-97625000D03*
X102135000Y-97625000D03*
X99595000Y-97625000D03*
D10*
X130075000Y-84465000D03*
D11*
X127535000Y-84465000D03*
X124995000Y-84465000D03*
X122455000Y-84465000D03*
X119915000Y-84465000D03*
X117375000Y-84465000D03*
X114835000Y-84465000D03*
X112295000Y-84465000D03*
X109755000Y-84465000D03*
X107215000Y-84465000D03*
X104675000Y-84465000D03*
X102135000Y-84465000D03*
X99595000Y-84465000D03*
D10*
X130075000Y-71305000D03*
D11*
X127535000Y-71305000D03*
X124995000Y-71305000D03*
X122455000Y-71305000D03*
X119915000Y-71305000D03*
X117375000Y-71305000D03*
X114835000Y-71305000D03*
X112295000Y-71305000D03*
X109755000Y-71305000D03*
X107215000Y-71305000D03*
X104675000Y-71305000D03*
X102135000Y-71305000D03*
X99595000Y-71305000D03*
D10*
X130075000Y-58145000D03*
D11*
X127535000Y-58145000D03*
X124995000Y-58145000D03*
X122455000Y-58145000D03*
X119915000Y-58145000D03*
X117375000Y-58145000D03*
X114835000Y-58145000D03*
X112295000Y-58145000D03*
X109755000Y-58145000D03*
X107215000Y-58145000D03*
X104675000Y-58145000D03*
X102135000Y-58145000D03*
X99595000Y-58145000D03*
D10*
X71655000Y-121405000D03*
D11*
X74195000Y-121405000D03*
X76735000Y-121405000D03*
X79275000Y-121405000D03*
X81815000Y-121405000D03*
X84355000Y-121405000D03*
X86895000Y-121405000D03*
X89435000Y-121405000D03*
X91975000Y-121405000D03*
X94515000Y-121405000D03*
X97055000Y-121405000D03*
D10*
X71655000Y-108245000D03*
D11*
X74195000Y-108245000D03*
X76735000Y-108245000D03*
X79275000Y-108245000D03*
X81815000Y-108245000D03*
X84355000Y-108245000D03*
X86895000Y-108245000D03*
X89435000Y-108245000D03*
X91975000Y-108245000D03*
X94515000Y-108245000D03*
X97055000Y-108245000D03*
D10*
X71655000Y-95085000D03*
D11*
X74195000Y-95085000D03*
X76735000Y-95085000D03*
X79275000Y-95085000D03*
X81815000Y-95085000D03*
X84355000Y-95085000D03*
X86895000Y-95085000D03*
X89435000Y-95085000D03*
X91975000Y-95085000D03*
X94515000Y-95085000D03*
X97055000Y-95085000D03*
D10*
X71655000Y-81925000D03*
D11*
X74195000Y-81925000D03*
X76735000Y-81925000D03*
X79275000Y-81925000D03*
X81815000Y-81925000D03*
X84355000Y-81925000D03*
X86895000Y-81925000D03*
X89435000Y-81925000D03*
X91975000Y-81925000D03*
X94515000Y-81925000D03*
X97055000Y-81925000D03*
D10*
X71655000Y-68765000D03*
D11*
X74195000Y-68765000D03*
X76735000Y-68765000D03*
X79275000Y-68765000D03*
X81815000Y-68765000D03*
X84355000Y-68765000D03*
X86895000Y-68765000D03*
X89435000Y-68765000D03*
X91975000Y-68765000D03*
X94515000Y-68765000D03*
X97055000Y-68765000D03*
D10*
X71655000Y-55605000D03*
D11*
X74195000Y-55605000D03*
X76735000Y-55605000D03*
X79275000Y-55605000D03*
X81815000Y-55605000D03*
X84355000Y-55605000D03*
X86895000Y-55605000D03*
X89435000Y-55605000D03*
X91975000Y-55605000D03*
X94515000Y-55605000D03*
X97055000Y-55605000D03*
D10*
X130075000Y-121405000D03*
D11*
X127535000Y-121405000D03*
X124995000Y-121405000D03*
X122455000Y-121405000D03*
X119915000Y-121405000D03*
X117375000Y-121405000D03*
X114835000Y-121405000D03*
X112295000Y-121405000D03*
X109755000Y-121405000D03*
X107215000Y-121405000D03*
X104675000Y-121405000D03*
X102135000Y-121405000D03*
X99595000Y-121405000D03*
D10*
X130075000Y-108245000D03*
D11*
X127535000Y-108245000D03*
X124995000Y-108245000D03*
X122455000Y-108245000D03*
X119915000Y-108245000D03*
X117375000Y-108245000D03*
X114835000Y-108245000D03*
X112295000Y-108245000D03*
X109755000Y-108245000D03*
X107215000Y-108245000D03*
X104675000Y-108245000D03*
X102135000Y-108245000D03*
X99595000Y-108245000D03*
D10*
X130075000Y-95085000D03*
D11*
X127535000Y-95085000D03*
X124995000Y-95085000D03*
X122455000Y-95085000D03*
X119915000Y-95085000D03*
X117375000Y-95085000D03*
X114835000Y-95085000D03*
X112295000Y-95085000D03*
X109755000Y-95085000D03*
X107215000Y-95085000D03*
X104675000Y-95085000D03*
X102135000Y-95085000D03*
X99595000Y-95085000D03*
D10*
X130075000Y-81925000D03*
D11*
X127535000Y-81925000D03*
X124995000Y-81925000D03*
X122455000Y-81925000D03*
X119915000Y-81925000D03*
X117375000Y-81925000D03*
X114835000Y-81925000D03*
X112295000Y-81925000D03*
X109755000Y-81925000D03*
X107215000Y-81925000D03*
X104675000Y-81925000D03*
X102135000Y-81925000D03*
X99595000Y-81925000D03*
D10*
X130075000Y-68765000D03*
D11*
X127535000Y-68765000D03*
X124995000Y-68765000D03*
X122455000Y-68765000D03*
X119915000Y-68765000D03*
X117375000Y-68765000D03*
X114835000Y-68765000D03*
X112295000Y-68765000D03*
X109755000Y-68765000D03*
X107215000Y-68765000D03*
X104675000Y-68765000D03*
X102135000Y-68765000D03*
X99595000Y-68765000D03*
D10*
X130075000Y-55605000D03*
D11*
X127535000Y-55605000D03*
X124995000Y-55605000D03*
X122455000Y-55605000D03*
X119915000Y-55605000D03*
X117375000Y-55605000D03*
X114835000Y-55605000D03*
X112295000Y-55605000D03*
X109755000Y-55605000D03*
X107215000Y-55605000D03*
X104675000Y-55605000D03*
X102135000Y-55605000D03*
X99595000Y-55605000D03*
D10*
X71655000Y-123945000D03*
D11*
X74195000Y-123945000D03*
X76735000Y-123945000D03*
X79275000Y-123945000D03*
X81815000Y-123945000D03*
X84355000Y-123945000D03*
X86895000Y-123945000D03*
X89435000Y-123945000D03*
X91975000Y-123945000D03*
X94515000Y-123945000D03*
X97055000Y-123945000D03*
D10*
X71655000Y-110785000D03*
D11*
X74195000Y-110785000D03*
X76735000Y-110785000D03*
X79275000Y-110785000D03*
X81815000Y-110785000D03*
X84355000Y-110785000D03*
X86895000Y-110785000D03*
X89435000Y-110785000D03*
X91975000Y-110785000D03*
X94515000Y-110785000D03*
X97055000Y-110785000D03*
D10*
X71655000Y-97625000D03*
D11*
X74195000Y-97625000D03*
X76735000Y-97625000D03*
X79275000Y-97625000D03*
X81815000Y-97625000D03*
X84355000Y-97625000D03*
X86895000Y-97625000D03*
X89435000Y-97625000D03*
X91975000Y-97625000D03*
X94515000Y-97625000D03*
X97055000Y-97625000D03*
D10*
X71655000Y-84465000D03*
D11*
X74195000Y-84465000D03*
X76735000Y-84465000D03*
X79275000Y-84465000D03*
X81815000Y-84465000D03*
X84355000Y-84465000D03*
X86895000Y-84465000D03*
X89435000Y-84465000D03*
X91975000Y-84465000D03*
X94515000Y-84465000D03*
X97055000Y-84465000D03*
D10*
X71655000Y-71305000D03*
D11*
X74195000Y-71305000D03*
X76735000Y-71305000D03*
X79275000Y-71305000D03*
X81815000Y-71305000D03*
X84355000Y-71305000D03*
X86895000Y-71305000D03*
X89435000Y-71305000D03*
X91975000Y-71305000D03*
X94515000Y-71305000D03*
X97055000Y-71305000D03*
D10*
X71655000Y-58145000D03*
D11*
X74195000Y-58145000D03*
X76735000Y-58145000D03*
X79275000Y-58145000D03*
X81815000Y-58145000D03*
X84355000Y-58145000D03*
X86895000Y-58145000D03*
X89435000Y-58145000D03*
X91975000Y-58145000D03*
X94515000Y-58145000D03*
X97055000Y-58145000D03*
X97055000Y-34825000D03*
X94515000Y-34825000D03*
X91975000Y-34825000D03*
X89435000Y-34825000D03*
X86895000Y-34825000D03*
X84355000Y-34825000D03*
X81815000Y-34825000D03*
X79275000Y-34825000D03*
X76735000Y-34825000D03*
X74195000Y-34825000D03*
D10*
X71655000Y-34825000D03*
D11*
X97055000Y-37365000D03*
X94515000Y-37365000D03*
X91975000Y-37365000D03*
X89435000Y-37365000D03*
X86895000Y-37365000D03*
X84355000Y-37365000D03*
X81815000Y-37365000D03*
X79275000Y-37365000D03*
X76735000Y-37365000D03*
X74195000Y-37365000D03*
D10*
X71655000Y-37365000D03*
D11*
X97055000Y-39905000D03*
X94515000Y-39905000D03*
X91975000Y-39905000D03*
X89435000Y-39905000D03*
X86895000Y-39905000D03*
X84355000Y-39905000D03*
X81815000Y-39905000D03*
X79275000Y-39905000D03*
X76735000Y-39905000D03*
X74195000Y-39905000D03*
D10*
X71655000Y-39905000D03*
D11*
X97055000Y-42445000D03*
X94515000Y-42445000D03*
X91975000Y-42445000D03*
X89435000Y-42445000D03*
X86895000Y-42445000D03*
X84355000Y-42445000D03*
X81815000Y-42445000D03*
X79275000Y-42445000D03*
X76735000Y-42445000D03*
X74195000Y-42445000D03*
D10*
X71655000Y-42445000D03*
D11*
X97055000Y-44985000D03*
X94515000Y-44985000D03*
X91975000Y-44985000D03*
X89435000Y-44985000D03*
X86895000Y-44985000D03*
X84355000Y-44985000D03*
X81815000Y-44985000D03*
X79275000Y-44985000D03*
X76735000Y-44985000D03*
X74195000Y-44985000D03*
D10*
X71655000Y-44985000D03*
D11*
X99595000Y-44985000D03*
X102135000Y-44985000D03*
X104675000Y-44985000D03*
X107215000Y-44985000D03*
X109755000Y-44985000D03*
X112295000Y-44985000D03*
X114835000Y-44985000D03*
X117375000Y-44985000D03*
X119915000Y-44985000D03*
X122455000Y-44985000D03*
X124995000Y-44985000D03*
X127535000Y-44985000D03*
D10*
X130075000Y-44985000D03*
D11*
X99595000Y-42445000D03*
X102135000Y-42445000D03*
X104675000Y-42445000D03*
X107215000Y-42445000D03*
X109755000Y-42445000D03*
X112295000Y-42445000D03*
X114835000Y-42445000D03*
X117375000Y-42445000D03*
X119915000Y-42445000D03*
X122455000Y-42445000D03*
X124995000Y-42445000D03*
X127535000Y-42445000D03*
D10*
X130075000Y-42445000D03*
D11*
X99595000Y-39905000D03*
X102135000Y-39905000D03*
X104675000Y-39905000D03*
X107215000Y-39905000D03*
X109755000Y-39905000D03*
X112295000Y-39905000D03*
X114835000Y-39905000D03*
X117375000Y-39905000D03*
X119915000Y-39905000D03*
X122455000Y-39905000D03*
X124995000Y-39905000D03*
X127535000Y-39905000D03*
D10*
X130075000Y-39905000D03*
D11*
X99595000Y-37365000D03*
X102135000Y-37365000D03*
X104675000Y-37365000D03*
X107215000Y-37365000D03*
X109755000Y-37365000D03*
X112295000Y-37365000D03*
X114835000Y-37365000D03*
X117375000Y-37365000D03*
X119915000Y-37365000D03*
X122455000Y-37365000D03*
X124995000Y-37365000D03*
X127535000Y-37365000D03*
D10*
X130075000Y-37365000D03*
D11*
X99595000Y-34825000D03*
X102135000Y-34825000D03*
X104675000Y-34825000D03*
X107215000Y-34825000D03*
X109755000Y-34825000D03*
X112295000Y-34825000D03*
X114835000Y-34825000D03*
X117375000Y-34825000D03*
X119915000Y-34825000D03*
X122455000Y-34825000D03*
X124995000Y-34825000D03*
X127535000Y-34825000D03*
D10*
X130075000Y-34825000D03*
D12*
X99595000Y-34825000D02*
X102135000Y-34825000D01*
X99595000Y-47985000D02*
X102135000Y-47985000D01*
X99595000Y-61145000D02*
X102135000Y-61145000D01*
X99595000Y-74305000D02*
X102135000Y-74305000D01*
X99595000Y-87465000D02*
X102135000Y-87465000D01*
X99595000Y-100625000D02*
X102135000Y-100625000D01*
X99595000Y-113785000D02*
X102135000Y-113785000D01*
X104675000Y-34825000D02*
X104675000Y-37365000D01*
X104675000Y-47985000D02*
X104675000Y-50525000D01*
X104675000Y-61145000D02*
X104675000Y-63685000D01*
X104675000Y-74305000D02*
X104675000Y-76845000D01*
X104675000Y-87465000D02*
X104675000Y-90005000D01*
X104675000Y-100625000D02*
X104675000Y-103165000D01*
X104675000Y-113785000D02*
X104675000Y-116325000D01*
X109755000Y-34825000D02*
X109755000Y-37365000D01*
X109755000Y-47985000D02*
X109755000Y-50525000D01*
X109755000Y-61145000D02*
X109755000Y-63685000D01*
X109755000Y-74305000D02*
X109755000Y-76845000D01*
X109755000Y-87465000D02*
X109755000Y-90005000D01*
X109755000Y-100625000D02*
X109755000Y-103165000D01*
X109755000Y-113785000D02*
X109755000Y-116325000D01*
X114835000Y-34825000D02*
X114835000Y-37365000D01*
X114835000Y-47985000D02*
X114835000Y-50525000D01*
X114835000Y-61145000D02*
X114835000Y-63685000D01*
X114835000Y-74305000D02*
X114835000Y-76845000D01*
X114835000Y-87465000D02*
X114835000Y-90005000D01*
X114835000Y-100625000D02*
X114835000Y-103165000D01*
X114835000Y-113785000D02*
X114835000Y-116325000D01*
X119915000Y-34825000D02*
X119915000Y-37365000D01*
X119915000Y-47985000D02*
X119915000Y-50525000D01*
X119915000Y-61145000D02*
X119915000Y-63685000D01*
X119915000Y-74305000D02*
X119915000Y-76845000D01*
X119915000Y-87465000D02*
X119915000Y-90005000D01*
X119915000Y-100625000D02*
X119915000Y-103165000D01*
X119915000Y-113785000D02*
X119915000Y-116325000D01*
X124995000Y-37365000D02*
X124995000Y-34825000D01*
X124995000Y-50525000D02*
X124995000Y-47985000D01*
X124995000Y-63685000D02*
X124995000Y-61145000D01*
X124995000Y-76845000D02*
X124995000Y-74305000D01*
X124995000Y-90005000D02*
X124995000Y-87465000D01*
X124995000Y-103165000D02*
X124995000Y-100625000D01*
X124995000Y-116325000D02*
X124995000Y-113785000D01*
X127535000Y-34825000D02*
X130075000Y-34825000D01*
X127535000Y-47985000D02*
X130075000Y-47985000D01*
X127535000Y-61145000D02*
X130075000Y-61145000D01*
X127535000Y-74305000D02*
X130075000Y-74305000D01*
X127535000Y-87465000D02*
X130075000Y-87465000D01*
X127535000Y-100625000D02*
X130075000Y-100625000D01*
X127535000Y-113785000D02*
X130075000Y-113785000D01*
X107215000Y-37365000D02*
X107215000Y-34825000D01*
X107215000Y-50525000D02*
X107215000Y-47985000D01*
X107215000Y-63685000D02*
X107215000Y-61145000D01*
X107215000Y-76845000D02*
X107215000Y-74305000D01*
X107215000Y-90005000D02*
X107215000Y-87465000D01*
X107215000Y-103165000D02*
X107215000Y-100625000D01*
X107215000Y-116325000D02*
X107215000Y-113785000D01*
X112295000Y-37365000D02*
X112295000Y-34825000D01*
X112295000Y-50525000D02*
X112295000Y-47985000D01*
X112295000Y-63685000D02*
X112295000Y-61145000D01*
X112295000Y-76845000D02*
X112295000Y-74305000D01*
X112295000Y-90005000D02*
X112295000Y-87465000D01*
X112295000Y-103165000D02*
X112295000Y-100625000D01*
X112295000Y-116325000D02*
X112295000Y-113785000D01*
X117375000Y-37365000D02*
X117375000Y-34825000D01*
X117375000Y-50525000D02*
X117375000Y-47985000D01*
X117375000Y-63685000D02*
X117375000Y-61145000D01*
X117375000Y-76845000D02*
X117375000Y-74305000D01*
X117375000Y-90005000D02*
X117375000Y-87465000D01*
X117375000Y-103165000D02*
X117375000Y-100625000D01*
X117375000Y-116325000D02*
X117375000Y-113785000D01*
X122455000Y-37365000D02*
X122455000Y-34825000D01*
X122455000Y-50525000D02*
X122455000Y-47985000D01*
X122455000Y-63685000D02*
X122455000Y-61145000D01*
X122455000Y-76845000D02*
X122455000Y-74305000D01*
X122455000Y-90005000D02*
X122455000Y-87465000D01*
X122455000Y-103165000D02*
X122455000Y-100625000D01*
X122455000Y-116325000D02*
X122455000Y-113785000D01*
X102135000Y-37365000D02*
X99595000Y-37365000D01*
X102135000Y-50525000D02*
X99595000Y-50525000D01*
X102135000Y-63685000D02*
X99595000Y-63685000D01*
X102135000Y-76845000D02*
X99595000Y-76845000D01*
X102135000Y-90005000D02*
X99595000Y-90005000D01*
X102135000Y-103165000D02*
X99595000Y-103165000D01*
X102135000Y-116325000D02*
X99595000Y-116325000D01*
X130075000Y-37365000D02*
X127535000Y-37365000D01*
X130075000Y-50525000D02*
X127535000Y-50525000D01*
X130075000Y-63685000D02*
X127535000Y-63685000D01*
X130075000Y-76845000D02*
X127535000Y-76845000D01*
X130075000Y-90005000D02*
X127535000Y-90005000D01*
X130075000Y-103165000D02*
X127535000Y-103165000D01*
X130075000Y-116325000D02*
X127535000Y-116325000D01*
X99595000Y-39905000D02*
X102135000Y-39905000D01*
X99595000Y-53065000D02*
X102135000Y-53065000D01*
X99595000Y-66225000D02*
X102135000Y-66225000D01*
X99595000Y-79385000D02*
X102135000Y-79385000D01*
X99595000Y-92545000D02*
X102135000Y-92545000D01*
X99595000Y-105705000D02*
X102135000Y-105705000D01*
X99595000Y-118865000D02*
X102135000Y-118865000D01*
X127535000Y-39905000D02*
X130075000Y-39905000D01*
X127535000Y-53065000D02*
X130075000Y-53065000D01*
X127535000Y-66225000D02*
X130075000Y-66225000D01*
X127535000Y-79385000D02*
X130075000Y-79385000D01*
X127535000Y-92545000D02*
X130075000Y-92545000D01*
X127535000Y-105705000D02*
X130075000Y-105705000D01*
X127535000Y-118865000D02*
X130075000Y-118865000D01*
X102135000Y-42445000D02*
X99595000Y-42445000D01*
X102135000Y-55605000D02*
X99595000Y-55605000D01*
X102135000Y-68765000D02*
X99595000Y-68765000D01*
X102135000Y-81925000D02*
X99595000Y-81925000D01*
X102135000Y-95085000D02*
X99595000Y-95085000D01*
X102135000Y-108245000D02*
X99595000Y-108245000D01*
X102135000Y-121405000D02*
X99595000Y-121405000D01*
X104675000Y-42445000D02*
X104675000Y-44985000D01*
X104675000Y-55605000D02*
X104675000Y-58145000D01*
X104675000Y-68765000D02*
X104675000Y-71305000D01*
X104675000Y-81925000D02*
X104675000Y-84465000D01*
X104675000Y-95085000D02*
X104675000Y-97625000D01*
X104675000Y-108245000D02*
X104675000Y-110785000D01*
X104675000Y-121405000D02*
X104675000Y-123945000D01*
X109755000Y-42445000D02*
X109755000Y-44985000D01*
X109755000Y-55605000D02*
X109755000Y-58145000D01*
X109755000Y-68765000D02*
X109755000Y-71305000D01*
X109755000Y-81925000D02*
X109755000Y-84465000D01*
X109755000Y-95085000D02*
X109755000Y-97625000D01*
X109755000Y-108245000D02*
X109755000Y-110785000D01*
X109755000Y-121405000D02*
X109755000Y-123945000D01*
X114835000Y-42445000D02*
X114835000Y-44985000D01*
X114835000Y-55605000D02*
X114835000Y-58145000D01*
X114835000Y-68765000D02*
X114835000Y-71305000D01*
X114835000Y-81925000D02*
X114835000Y-84465000D01*
X114835000Y-95085000D02*
X114835000Y-97625000D01*
X114835000Y-108245000D02*
X114835000Y-110785000D01*
X114835000Y-121405000D02*
X114835000Y-123945000D01*
X119915000Y-42445000D02*
X119915000Y-44985000D01*
X119915000Y-55605000D02*
X119915000Y-58145000D01*
X119915000Y-68765000D02*
X119915000Y-71305000D01*
X119915000Y-81925000D02*
X119915000Y-84465000D01*
X119915000Y-95085000D02*
X119915000Y-97625000D01*
X119915000Y-108245000D02*
X119915000Y-110785000D01*
X119915000Y-121405000D02*
X119915000Y-123945000D01*
X124995000Y-42445000D02*
X124995000Y-44985000D01*
X124995000Y-55605000D02*
X124995000Y-58145000D01*
X124995000Y-68765000D02*
X124995000Y-71305000D01*
X124995000Y-81925000D02*
X124995000Y-84465000D01*
X124995000Y-95085000D02*
X124995000Y-97625000D01*
X124995000Y-108245000D02*
X124995000Y-110785000D01*
X124995000Y-121405000D02*
X124995000Y-123945000D01*
X130075000Y-42445000D02*
X127535000Y-42445000D01*
X130075000Y-55605000D02*
X127535000Y-55605000D01*
X130075000Y-68765000D02*
X127535000Y-68765000D01*
X130075000Y-81925000D02*
X127535000Y-81925000D01*
X130075000Y-95085000D02*
X127535000Y-95085000D01*
X130075000Y-108245000D02*
X127535000Y-108245000D01*
X130075000Y-121405000D02*
X127535000Y-121405000D01*
X107215000Y-44985000D02*
X107215000Y-42445000D01*
X107215000Y-58145000D02*
X107215000Y-55605000D01*
X107215000Y-71305000D02*
X107215000Y-68765000D01*
X107215000Y-84465000D02*
X107215000Y-81925000D01*
X107215000Y-97625000D02*
X107215000Y-95085000D01*
X107215000Y-110785000D02*
X107215000Y-108245000D01*
X107215000Y-123945000D02*
X107215000Y-121405000D01*
X112295000Y-44985000D02*
X112295000Y-42445000D01*
X112295000Y-58145000D02*
X112295000Y-55605000D01*
X112295000Y-71305000D02*
X112295000Y-68765000D01*
X112295000Y-84465000D02*
X112295000Y-81925000D01*
X112295000Y-97625000D02*
X112295000Y-95085000D01*
X112295000Y-110785000D02*
X112295000Y-108245000D01*
X112295000Y-123945000D02*
X112295000Y-121405000D01*
X117375000Y-44985000D02*
X117375000Y-42445000D01*
X117375000Y-58145000D02*
X117375000Y-55605000D01*
X117375000Y-71305000D02*
X117375000Y-68765000D01*
X117375000Y-84465000D02*
X117375000Y-81925000D01*
X117375000Y-97625000D02*
X117375000Y-95085000D01*
X117375000Y-110785000D02*
X117375000Y-108245000D01*
X117375000Y-123945000D02*
X117375000Y-121405000D01*
X122455000Y-44985000D02*
X122455000Y-42445000D01*
X122455000Y-58145000D02*
X122455000Y-55605000D01*
X122455000Y-71305000D02*
X122455000Y-68765000D01*
X122455000Y-84465000D02*
X122455000Y-81925000D01*
X122455000Y-97625000D02*
X122455000Y-95085000D01*
X122455000Y-110785000D02*
X122455000Y-108245000D01*
X122455000Y-123945000D02*
X122455000Y-121405000D01*
X99595000Y-44985000D02*
X102135000Y-44985000D01*
X99595000Y-58145000D02*
X102135000Y-58145000D01*
X99595000Y-71305000D02*
X102135000Y-71305000D01*
X99595000Y-84465000D02*
X102135000Y-84465000D01*
X99595000Y-97625000D02*
X102135000Y-97625000D01*
X99595000Y-110785000D02*
X102135000Y-110785000D01*
X99595000Y-123945000D02*
X102135000Y-123945000D01*
X127535000Y-44985000D02*
X130075000Y-44985000D01*
X127535000Y-58145000D02*
X130075000Y-58145000D01*
X127535000Y-71305000D02*
X130075000Y-71305000D01*
X127535000Y-84465000D02*
X130075000Y-84465000D01*
X127535000Y-97625000D02*
X130075000Y-97625000D01*
X127535000Y-110785000D02*
X130075000Y-110785000D01*
X127535000Y-123945000D02*
X130075000Y-123945000D01*
X97055000Y-39905000D02*
X94515000Y-39905000D01*
X94515000Y-39905000D02*
X91975000Y-39905000D01*
X91975000Y-39905000D02*
X89435000Y-39905000D01*
X89435000Y-39905000D02*
X86895000Y-39905000D01*
X86895000Y-39905000D02*
X84355000Y-39905000D01*
X84355000Y-39905000D02*
X81815000Y-39905000D01*
X81815000Y-39905000D02*
X79275000Y-39905000D01*
X79275000Y-39905000D02*
X76735000Y-39905000D01*
X76735000Y-39905000D02*
X74195000Y-39905000D01*
X74195000Y-39905000D02*
X71655000Y-39905000D01*
X97055000Y-53065000D02*
X94515000Y-53065000D01*
X97055000Y-66225000D02*
X94515000Y-66225000D01*
X97055000Y-79385000D02*
X94515000Y-79385000D01*
X97055000Y-92545000D02*
X94515000Y-92545000D01*
X97055000Y-105705000D02*
X94515000Y-105705000D01*
X97055000Y-118865000D02*
X94515000Y-118865000D01*
X94515000Y-53065000D02*
X91975000Y-53065000D01*
X94515000Y-66225000D02*
X91975000Y-66225000D01*
X94515000Y-79385000D02*
X91975000Y-79385000D01*
X94515000Y-92545000D02*
X91975000Y-92545000D01*
X94515000Y-105705000D02*
X91975000Y-105705000D01*
X94515000Y-118865000D02*
X91975000Y-118865000D01*
X91975000Y-53065000D02*
X89435000Y-53065000D01*
X91975000Y-66225000D02*
X89435000Y-66225000D01*
X91975000Y-79385000D02*
X89435000Y-79385000D01*
X91975000Y-92545000D02*
X89435000Y-92545000D01*
X91975000Y-105705000D02*
X89435000Y-105705000D01*
X91975000Y-118865000D02*
X89435000Y-118865000D01*
X89435000Y-53065000D02*
X86895000Y-53065000D01*
X89435000Y-66225000D02*
X86895000Y-66225000D01*
X89435000Y-79385000D02*
X86895000Y-79385000D01*
X89435000Y-92545000D02*
X86895000Y-92545000D01*
X89435000Y-105705000D02*
X86895000Y-105705000D01*
X89435000Y-118865000D02*
X86895000Y-118865000D01*
X76735000Y-53065000D02*
X74195000Y-53065000D01*
X76735000Y-66225000D02*
X74195000Y-66225000D01*
X76735000Y-79385000D02*
X74195000Y-79385000D01*
X76735000Y-92545000D02*
X74195000Y-92545000D01*
X76735000Y-105705000D02*
X74195000Y-105705000D01*
X76735000Y-118865000D02*
X74195000Y-118865000D01*
X74195000Y-53065000D02*
X71655000Y-53065000D01*
X74195000Y-66225000D02*
X71655000Y-66225000D01*
X74195000Y-79385000D02*
X71655000Y-79385000D01*
X74195000Y-92545000D02*
X71655000Y-92545000D01*
X74195000Y-105705000D02*
X71655000Y-105705000D01*
X74195000Y-118865000D02*
X71655000Y-118865000D01*
X81815000Y-53065000D02*
X79275000Y-53065000D01*
X81815000Y-66225000D02*
X79275000Y-66225000D01*
X81815000Y-79385000D02*
X79275000Y-79385000D01*
X81815000Y-92545000D02*
X79275000Y-92545000D01*
X81815000Y-105705000D02*
X79275000Y-105705000D01*
X81815000Y-118865000D02*
X79275000Y-118865000D01*
X79275000Y-53065000D02*
X76735000Y-53065000D01*
X79275000Y-66225000D02*
X76735000Y-66225000D01*
X79275000Y-79385000D02*
X76735000Y-79385000D01*
X79275000Y-92545000D02*
X76735000Y-92545000D01*
X79275000Y-105705000D02*
X76735000Y-105705000D01*
X79275000Y-118865000D02*
X76735000Y-118865000D01*
X86895000Y-53065000D02*
X84355000Y-53065000D01*
X86895000Y-66225000D02*
X84355000Y-66225000D01*
X86895000Y-79385000D02*
X84355000Y-79385000D01*
X86895000Y-92545000D02*
X84355000Y-92545000D01*
X86895000Y-105705000D02*
X84355000Y-105705000D01*
X86895000Y-118865000D02*
X84355000Y-118865000D01*
X84355000Y-53065000D02*
X81815000Y-53065000D01*
X84355000Y-66225000D02*
X81815000Y-66225000D01*
X84355000Y-79385000D02*
X81815000Y-79385000D01*
X84355000Y-92545000D02*
X81815000Y-92545000D01*
X84355000Y-105705000D02*
X81815000Y-105705000D01*
X84355000Y-118865000D02*
X81815000Y-118865000D01*
X71655000Y-37365000D02*
X74195000Y-37365000D01*
X74195000Y-37365000D02*
X76735000Y-37365000D01*
X76735000Y-37365000D02*
X79275000Y-37365000D01*
X79275000Y-37365000D02*
X81815000Y-37365000D01*
X81815000Y-37365000D02*
X84355000Y-37365000D01*
X84355000Y-37365000D02*
X86895000Y-37365000D01*
X86895000Y-37365000D02*
X89435000Y-37365000D01*
X89435000Y-37365000D02*
X91975000Y-37365000D01*
X91975000Y-37365000D02*
X94515000Y-37365000D01*
X94515000Y-37365000D02*
X97055000Y-37365000D01*
X81815000Y-50525000D02*
X84355000Y-50525000D01*
X81815000Y-63685000D02*
X84355000Y-63685000D01*
X81815000Y-76845000D02*
X84355000Y-76845000D01*
X81815000Y-90005000D02*
X84355000Y-90005000D01*
X81815000Y-103165000D02*
X84355000Y-103165000D01*
X81815000Y-116325000D02*
X84355000Y-116325000D01*
X84355000Y-50525000D02*
X86895000Y-50525000D01*
X84355000Y-63685000D02*
X86895000Y-63685000D01*
X84355000Y-76845000D02*
X86895000Y-76845000D01*
X84355000Y-90005000D02*
X86895000Y-90005000D01*
X84355000Y-103165000D02*
X86895000Y-103165000D01*
X84355000Y-116325000D02*
X86895000Y-116325000D01*
X91975000Y-50525000D02*
X94515000Y-50525000D01*
X91975000Y-63685000D02*
X94515000Y-63685000D01*
X91975000Y-76845000D02*
X94515000Y-76845000D01*
X91975000Y-90005000D02*
X94515000Y-90005000D01*
X91975000Y-103165000D02*
X94515000Y-103165000D01*
X91975000Y-116325000D02*
X94515000Y-116325000D01*
X94515000Y-50525000D02*
X97055000Y-50525000D01*
X94515000Y-63685000D02*
X97055000Y-63685000D01*
X94515000Y-76845000D02*
X97055000Y-76845000D01*
X94515000Y-90005000D02*
X97055000Y-90005000D01*
X94515000Y-103165000D02*
X97055000Y-103165000D01*
X94515000Y-116325000D02*
X97055000Y-116325000D01*
X86895000Y-50525000D02*
X89435000Y-50525000D01*
X86895000Y-63685000D02*
X89435000Y-63685000D01*
X86895000Y-76845000D02*
X89435000Y-76845000D01*
X86895000Y-90005000D02*
X89435000Y-90005000D01*
X86895000Y-103165000D02*
X89435000Y-103165000D01*
X86895000Y-116325000D02*
X89435000Y-116325000D01*
X89435000Y-50525000D02*
X91975000Y-50525000D01*
X89435000Y-63685000D02*
X91975000Y-63685000D01*
X89435000Y-76845000D02*
X91975000Y-76845000D01*
X89435000Y-90005000D02*
X91975000Y-90005000D01*
X89435000Y-103165000D02*
X91975000Y-103165000D01*
X89435000Y-116325000D02*
X91975000Y-116325000D01*
X71655000Y-50525000D02*
X74195000Y-50525000D01*
X71655000Y-63685000D02*
X74195000Y-63685000D01*
X71655000Y-76845000D02*
X74195000Y-76845000D01*
X71655000Y-90005000D02*
X74195000Y-90005000D01*
X71655000Y-103165000D02*
X74195000Y-103165000D01*
X71655000Y-116325000D02*
X74195000Y-116325000D01*
X74195000Y-50525000D02*
X76735000Y-50525000D01*
X74195000Y-63685000D02*
X76735000Y-63685000D01*
X74195000Y-76845000D02*
X76735000Y-76845000D01*
X74195000Y-90005000D02*
X76735000Y-90005000D01*
X74195000Y-103165000D02*
X76735000Y-103165000D01*
X74195000Y-116325000D02*
X76735000Y-116325000D01*
X76735000Y-50525000D02*
X79275000Y-50525000D01*
X76735000Y-63685000D02*
X79275000Y-63685000D01*
X76735000Y-76845000D02*
X79275000Y-76845000D01*
X76735000Y-90005000D02*
X79275000Y-90005000D01*
X76735000Y-103165000D02*
X79275000Y-103165000D01*
X76735000Y-116325000D02*
X79275000Y-116325000D01*
X79275000Y-50525000D02*
X81815000Y-50525000D01*
X79275000Y-63685000D02*
X81815000Y-63685000D01*
X79275000Y-76845000D02*
X81815000Y-76845000D01*
X79275000Y-90005000D02*
X81815000Y-90005000D01*
X79275000Y-103165000D02*
X81815000Y-103165000D01*
X79275000Y-116325000D02*
X81815000Y-116325000D01*
M02*
