M48
; DRILL file {KiCad 5.1.5-52549c5~86~ubuntu18.04.1} date jue 06 ago 2020 00:47:17 -05
; FORMAT={-:-/ absolute / metric / decimal}
; #@! TF.CreationDate,2020-08-06T00:47:17-05:00
; #@! TF.GenerationSoftware,Kicad,Pcbnew,5.1.5-52549c5~86~ubuntu18.04.1
; #@! TF.FileFunction,Plated,1,2,PTH
FMAT,2
METRIC
T1C1.000
%
G90
G05
T1
X101.5Y-104.04
X104.04Y-104.04
X106.58Y-104.04
X109.12Y-104.04
X111.66Y-104.04
X114.2Y-104.04
X116.74Y-104.04
X119.28Y-104.04
X121.82Y-104.04
X124.36Y-104.04
X126.9Y-104.04
X129.44Y-111.66
X131.98Y-111.66
X134.52Y-111.66
X137.06Y-111.66
X139.6Y-111.66
X142.14Y-111.66
X144.68Y-111.66
X147.22Y-111.66
X149.76Y-111.66
X152.3Y-111.66
X154.84Y-111.66
X157.38Y-111.66
X159.92Y-111.66
X101.5Y-111.66
X104.04Y-111.66
X106.58Y-111.66
X109.12Y-111.66
X111.66Y-111.66
X114.2Y-111.66
X116.74Y-111.66
X119.28Y-111.66
X121.82Y-111.66
X124.36Y-111.66
X126.9Y-111.66
X129.44Y-104.04
X131.98Y-104.04
X134.52Y-104.04
X137.06Y-104.04
X139.6Y-104.04
X142.14Y-104.04
X144.68Y-104.04
X147.22Y-104.04
X149.76Y-104.04
X152.3Y-104.04
X154.84Y-104.04
X157.38Y-104.04
X159.92Y-104.04
X101.5Y-101.5
X104.04Y-101.5
X106.58Y-101.5
X109.12Y-101.5
X111.66Y-101.5
X114.2Y-101.5
X116.74Y-101.5
X119.28Y-101.5
X121.82Y-101.5
X124.36Y-101.5
X126.9Y-101.5
X129.44Y-106.58
X131.98Y-106.58
X134.52Y-106.58
X137.06Y-106.58
X139.6Y-106.58
X142.14Y-106.58
X144.68Y-106.58
X147.22Y-106.58
X149.76Y-106.58
X152.3Y-106.58
X154.84Y-106.58
X157.38Y-106.58
X159.92Y-106.58
X129.44Y-101.5
X131.98Y-101.5
X134.52Y-101.5
X137.06Y-101.5
X139.6Y-101.5
X142.14Y-101.5
X144.68Y-101.5
X147.22Y-101.5
X149.76Y-101.5
X152.3Y-101.5
X154.84Y-101.5
X157.38Y-101.5
X159.92Y-101.5
X101.5Y-109.12
X104.04Y-109.12
X106.58Y-109.12
X109.12Y-109.12
X111.66Y-109.12
X114.2Y-109.12
X116.74Y-109.12
X119.28Y-109.12
X121.82Y-109.12
X124.36Y-109.12
X126.9Y-109.12
X101.5Y-106.58
X104.04Y-106.58
X106.58Y-106.58
X109.12Y-106.58
X111.66Y-106.58
X114.2Y-106.58
X116.74Y-106.58
X119.28Y-106.58
X121.82Y-106.58
X124.36Y-106.58
X126.9Y-106.58
X129.44Y-109.12
X131.98Y-109.12
X134.52Y-109.12
X137.06Y-109.12
X139.6Y-109.12
X142.14Y-109.12
X144.68Y-109.12
X147.22Y-109.12
X149.76Y-109.12
X152.3Y-109.12
X154.84Y-109.12
X157.38Y-109.12
X159.92Y-109.12
T0
M30
